<mxfile host="app.diagrams.net" modified="2023-09-29T16:57:30.081Z" agent="Mozilla/5.0 (Windows NT 10.0; Win64; x64) AppleWebKit/537.36 (KHTML, like Gecko) Chrome/117.0.0.0 Safari/537.36 Edg/117.0.2045.43" etag="EhkLBAOwShkkmTWoKvds" version="22.0.0" type="github">
  <diagram name="PÃ¡gina-1" id="uweDOdr3YU_1gS70fmey">
    <mxGraphModel dx="5384" dy="2565" grid="1" gridSize="10" guides="1" tooltips="1" connect="1" arrows="1" fold="1" page="1" pageScale="1" pageWidth="827" pageHeight="1169" math="0" shadow="0">
      <root>
        <mxCell id="0" />
        <mxCell id="1" parent="0" />
        <mxCell id="1jlto0hH50arYXANZJDi-2" value="" style="rounded=0;whiteSpace=wrap;html=1;" parent="1" vertex="1">
          <mxGeometry x="140" y="250" width="320" height="320" as="geometry" />
        </mxCell>
        <mxCell id="1jlto0hH50arYXANZJDi-3" value="" style="rounded=0;whiteSpace=wrap;html=1;" parent="1" vertex="1">
          <mxGeometry x="490" y="250" width="220" height="320" as="geometry" />
        </mxCell>
        <mxCell id="1jlto0hH50arYXANZJDi-4" value="" style="rounded=0;whiteSpace=wrap;html=1;" parent="1" vertex="1">
          <mxGeometry x="-70" y="250" width="180" height="320" as="geometry" />
        </mxCell>
        <mxCell id="1jlto0hH50arYXANZJDi-6" value="&lt;b&gt;&lt;font style=&quot;font-size: 15px;&quot;&gt;SAP BTP&lt;/font&gt;&lt;/b&gt;" style="text;strokeColor=none;align=center;fillColor=none;html=1;verticalAlign=middle;whiteSpace=wrap;rounded=0;" parent="1" vertex="1">
          <mxGeometry x="250" y="210" width="100" height="30" as="geometry" />
        </mxCell>
        <mxCell id="1jlto0hH50arYXANZJDi-7" value="&lt;b&gt;&lt;font style=&quot;font-size: 15px;&quot;&gt;SAP SALES&lt;/font&gt;&lt;/b&gt;" style="text;strokeColor=none;align=center;fillColor=none;html=1;verticalAlign=middle;whiteSpace=wrap;rounded=0;" parent="1" vertex="1">
          <mxGeometry x="-30" y="210" width="100" height="30" as="geometry" />
        </mxCell>
        <mxCell id="1jlto0hH50arYXANZJDi-8" value="&lt;b&gt;&lt;font style=&quot;font-size: 15px;&quot;&gt;SAP B1&lt;/font&gt;&lt;/b&gt;" style="text;strokeColor=none;align=center;fillColor=none;html=1;verticalAlign=middle;whiteSpace=wrap;rounded=0;" parent="1" vertex="1">
          <mxGeometry x="550" y="210" width="100" height="30" as="geometry" />
        </mxCell>
        <mxCell id="1jlto0hH50arYXANZJDi-10" value="" style="rounded=0;whiteSpace=wrap;html=1;fontColor=#4f69cc;strokeColor=#5958d0;" parent="1" vertex="1">
          <mxGeometry x="180" y="290" width="240" height="240" as="geometry" />
        </mxCell>
        <mxCell id="1jlto0hH50arYXANZJDi-12" value="&lt;span style=&quot;font-size: 11px;&quot;&gt;&lt;b style=&quot;font-size: 11px;&quot;&gt;SAP Integration Suite&lt;/b&gt;&lt;/span&gt;" style="text;strokeColor=none;align=center;fillColor=none;html=1;verticalAlign=middle;whiteSpace=wrap;rounded=0;fontSize=11;labelBackgroundColor=none;fontColor=#4963ca;" parent="1" vertex="1">
          <mxGeometry x="150" y="290" width="170" height="20" as="geometry" />
        </mxCell>
        <mxCell id="1jlto0hH50arYXANZJDi-26" style="edgeStyle=orthogonalEdgeStyle;rounded=0;orthogonalLoop=1;jettySize=auto;html=1;exitX=1;exitY=0.5;exitDx=0;exitDy=0;entryX=0.5;entryY=0;entryDx=0;entryDy=0;" parent="1" source="1jlto0hH50arYXANZJDi-13" target="1jlto0hH50arYXANZJDi-15" edge="1">
          <mxGeometry relative="1" as="geometry" />
        </mxCell>
        <mxCell id="1jlto0hH50arYXANZJDi-30" style="edgeStyle=orthogonalEdgeStyle;rounded=0;orthogonalLoop=1;jettySize=auto;html=1;exitX=0;exitY=0.5;exitDx=0;exitDy=0;entryX=1;entryY=0.5;entryDx=0;entryDy=0;" parent="1" source="1jlto0hH50arYXANZJDi-13" target="1jlto0hH50arYXANZJDi-27" edge="1">
          <mxGeometry relative="1" as="geometry" />
        </mxCell>
        <mxCell id="1jlto0hH50arYXANZJDi-13" value="API Management" style="shape=image;verticalLabelPosition=bottom;verticalAlign=top;imageAspect=0;aspect=fixed;image=data:image/svg+xml,PHN2ZyB4bWxucz0iaHR0cDovL3d3dy53My5vcmcvMjAwMC9zdmciIGlkPSJhcGktbWFuYWdlbWVudCIgdmlld0JveD0iNC4wMDAwMDE5MDczNDg2MzMgMy45OTk5OTkwNDYzMjU2ODM2IDQ4IDQ3Ljk5OTk5NjE4NTMwMjczNCIgd2lkdGg9IjQ4IiBoZWlnaHQ9IjQ3Ljk5OTk5NjE4NTMwMjczNCI+PGRlZnM+PHN0eWxlPi5jbHMtMXtmaWxsOiMwNzRkOTI7fS5jbHMtMntmaWxsOiMwNTNiNzA7fS5jbHMtM3tmaWxsOiMwYTZlZDE7fTwvc3R5bGU+PC9kZWZzPjx0aXRsZT5hcGktbWFuYWdlbWVudF9jaXJjbGU8L3RpdGxlPjxwYXRoIGNsYXNzPSJjbHMtMSIgZD0iTTI4LDZBMjIsMjIsMCwxLDEsNiwyOCwyMi4wMjUsMjIuMDI1LDAsMCwxLDI4LDZtMC0yQTI0LDI0LDAsMSwwLDUyLDI4LDI0LDI0LDAsMCwwLDI4LDRaIi8+PHBhdGggY2xhc3M9ImNscy0yIiBkPSJNMjguMjI1LDI5Ljk3OGE4LjM1Miw4LjM1MiwwLDAsMS0xLjUyLS44ODlsLTMuMzg5LDQuNDgyYTQuNDYzLDQuNDYzLDAsMCwwLTEuNjk0LS4zMjhBNC4zNzQsNC4zNzQsMCwxLDAsMjYsMzcuNjE2YTQuMTIsNC4xMiwwLDAsMC0xLjI1Ny0zLjA2MVptLTYuNiwxMC4yNjNhMi42MjUsMi42MjUsMCwxLDEsMi42MjQtMi42MjVBMi41OTEsMi41OTEsMCwwLDEsMjEuNjIyLDQwLjI0MVoiLz48cGF0aCBjbGFzcz0iY2xzLTIiIGQ9Ik0yMC43NDcsMjcuMjNjMC0uMTY0LDAtLjMyOC0uMDU1LS4zODNsMy41LS43MTEtLjAyLS4wNTFjLS4yMzItLjQ2NS0uNC0xLjE5Mi0uNTg0LTEuNjYybC0uMDUyLjAxOS0zLjMzNS43MUE0LjMxNyw0LjMxNywwLDAsMCwxNi4zNzMsMjIuOCw0LjQsNC40LDAsMCwwLDEyLDI3LjIzYTQuMzc0LDQuMzc0LDAsMCwwLDguNzQ3LDBaTTE2LjM3MywyOS44YTIuNTQ1LDIuNTQ1LDAsMCwxLTIuNjI0LTIuNTY5LDIuNjI1LDIuNjI1LDAsMSwxLDUuMjQ5LDBBMi41NDYsMi41NDYsMCwwLDEsMTYuMzczLDI5LjhaIi8+PHBhdGggY2xhc3M9ImNscy0yIiBkPSJNMzUuODksMzMuMjQzaC0uNTQ3TDM0LjUxOCwzMC4yYTguMjgxLDguMjgxLDAsMCwxLTEuNy40MjZsLjgyOSwzLjExM2E0LjM2LDQuMzYsMCwwLDAsMS42OTQsOC4yNTUsNC4zODIsNC4zODIsMCwwLDAsLjU0Ny04Ljc0N1ptMi4zNTEsNC41MzhhMi42NjYsMi42NjYsMCwwLDEtMi43ODksMi40NiwyLjYzLDIuNjMsMCwxLDEsMi43ODktMi40NloiLz48cGF0aCBjbGFzcz0iY2xzLTMiIGQ9Ik0yOC4yMzYsMjkuOTYzYTguMjc3LDguMjc3LDAsMCwwLDMuMzkuNzY1LDguMTMxLDguMTMxLDAsMCwwLDEuMi0uMTA5aDBhOC4zNTQsOC4zNTQsMCwxLDAtOS41NjgtOC4yNTYsOS40NDUsOS40NDUsMCwwLDAsLjI3NCwyLjA3OGwuMDYzLjI1OWE3LjU0LDcuNTQsMCwwLDAsLjU3MywxLjM4NGwuMDIuMDUxYTguMjM0LDguMjM0LDAsMCwwLDIuNTE1LDIuOTUyaDBBOC4zNzUsOC4zNzUsMCwwLDAsMjguMjM2LDI5Ljk2M1ptMS43NS0zLjk5MUgzMy4zMmE2LjgxMiw2LjgxMiwwLDAsMS0xLjY5NCwyLjU3QTYuNSw2LjUsMCwwLDEsMjkuOTg2LDI1Ljk3MlptLS40MzgtMS42OTRhNy4zNDcsNy4zNDcsMCwwLDEtLjIxOC0xLjkxNCw4LjQ0Nyw4LjQ0NywwLDAsMSwuMTY0LTEuN2g0LjMxOWMuMDU0LjYuMTA5LDEuMDk0LjEwOSwxLjdhMTAuNDM5LDEwLjQzOSwwLDAsMS0uMTY0LDEuOTE0Wm0zLjIyNiw0LjY0NmE4LjYxNiw4LjYxNiwwLDAsMCwxLjY0LTIuOTUyaDIuODQyQTYuOTMyLDYuOTMyLDAsMCwxLDMyLjc3NCwyOC45MjRabTUuMy04LjI1NWE1LjMxNyw1LjMxNywwLDAsMSwuMjE4LDEuNyw4LjA4Miw4LjA4MiwwLDAsMS0uMjczLDEuOTE0SDM0LjhhMTAuMzUyLDEwLjM1MiwwLDAsMCwuMTY0LTEuOTE0YzAtLjYtLjA1NC0xLjA5My0uMTA5LTEuN1ptLS43MTEtMS42MzloLTIuOUE3LjM0MSw3LjM0MSwwLDAsMCwzMi43MTksMTUuOCw2LjgxNiw2LjgxNiwwLDAsMSwzNy4zNjYsMTkuMDNabS0zLjk5MSwwSDI5LjkzMWE3LjI2Miw3LjI2MiwwLDAsMSwxLjctMi45QTYuNjY0LDYuNjY0LDAsMCwxLDMzLjM3NSwxOS4wM1pNMzAuNTMyLDE1LjhhOS40LDkuNCwwLDAsMC0xLjc0OSwzLjIyNmgtMi45QTYuOTMzLDYuOTMzLDAsMCwxLDMwLjUzMiwxNS44Wm0tNS4yNDgsOC40NzRhNS40MjgsNS40MjgsMCwwLDEtLjMyOC0xLjkxNCw2LjAyMSw2LjAyMSwwLDAsMSwuMjE5LTEuN2gzLjI4YTguNTIsOC41MiwwLDAsMC0uMTY0LDEuNywxMC40MzksMTAuNDM5LDAsMCwwLC4xNjQsMS45MTRabS43NjYsMS42OTRoMi43ODhhOS42LDkuNiwwLDAsMCwxLjY0LDIuOTUyQTYuODE2LDYuODE2LDAsMCwxLDI2LjA1LDI1Ljk3MloiLz48L3N2Zz4=;rounded=0;" parent="1" vertex="1">
          <mxGeometry x="211" y="340" width="50" height="50" as="geometry" />
        </mxCell>
        <mxCell id="1jlto0hH50arYXANZJDi-22" style="edgeStyle=orthogonalEdgeStyle;rounded=0;orthogonalLoop=1;jettySize=auto;html=1;exitX=0;exitY=0.5;exitDx=0;exitDy=0;" parent="1" source="1jlto0hH50arYXANZJDi-14" target="1jlto0hH50arYXANZJDi-15" edge="1">
          <mxGeometry relative="1" as="geometry" />
        </mxCell>
        <mxCell id="1jlto0hH50arYXANZJDi-14" value="Cloud Connector" style="shape=image;verticalLabelPosition=bottom;verticalAlign=top;imageAspect=0;aspect=fixed;image=data:image/svg+xml,PHN2ZyB4bWxucz0iaHR0cDovL3d3dy53My5vcmcvMjAwMC9zdmciIGlkPSJjbG91ZGNvbm5lY3RvciIgdmlld0JveD0iNC4wMDAwMDE5MDczNDg2MzMgMy45OTk5OTkwNDYzMjU2ODM2IDQ4IDQ3Ljk5OTk5NjE4NTMwMjczNCIgd2lkdGg9IjQ4IiBoZWlnaHQ9IjQ3Ljk5OTk5NjE4NTMwMjczNCI+PGRlZnM+PHN0eWxlPi5jbHMtMXtmaWxsOiMwNzRkOTI7fS5jbHMtMntmaWxsOiM3ZjdmN2Y7fTwvc3R5bGU+PC9kZWZzPjx0aXRsZT5jbG91ZGNvbm5lY3Rvcl9jaXJjbGU8L3RpdGxlPjxwYXRoIGNsYXNzPSJjbHMtMSIgZD0iTTI4LDZBMjIsMjIsMCwxLDEsNiwyOCwyMi4wMjUsMjIuMDI1LDAsMCwxLDI4LDZtMC0yQTI0LDI0LDAsMSwwLDUyLDI4LDI0LDI0LDAsMCwwLDI4LDRaIi8+PHBhdGggY2xhc3M9ImNscy0yIiBkPSJNMjIuODE0LDE1Ljc1MUEzLjc2OCwzLjc2OCwwLDAsMSwyNi4yMzUsMTguMUwyNywyMC4wMjNsMS43NjctMS4wNjZhMi4yODcsMi4yODcsMCwwLDEsMS4xOTItLjM0NSwyLjMyNiwyLjMyNiwwLDAsMSwyLjI4MywxLjlsLjE2OC44OTIuODI2LjM3N2EzLjEyMSwzLjEyMSwwLDAsMSwxLjc1LDIuNzI0SDM2Ljc1YTQuODc2LDQuODc2LDAsMCwwLTIuNzkxLTQuMzE3LDQuMDQ5LDQuMDQ5LDAsMCwwLTYuMS0yLjcyNUE1LjUxNCw1LjUxNCwwLDAsMCwyMi43ODIsMTRjLTYuMDM4LjMyLTUuNCw2LjItNS40LDYuMmE0Ljg5Myw0Ljg5MywwLDAsMCwxLjUyNCw5LjU0N0gyMi43NXYtMS43NUgxOC45MDZhMy4xNDMsMy4xNDMsMCwwLDEtLjk3Ny02LjEzNGwxLjM0Ni0uNDQzLS4xNTMtMS40MDhBNC43MzMsNC43MzMsMCwwLDEsMjAsMTYuOTI0LDMuOCwzLjgsMCwwLDEsMjIuODE0LDE1Ljc1MVoiLz48cGF0aCBjbGFzcz0iY2xzLTIiIGQ9Ik00Miw0MC45MDYsNDEuMDE2LDQyLDM3LjU3LDM4LjYwOWwuMTEtLjEwOS0xLjAzOS45ODRhNC41NDMsNC41NDMsMCwwLDEtMy4xMTgsMS4zNjgsNC4xMTIsNC4xMTIsMCwwLDEtMy4wNjItMS4zNjhsLTEuNDIyLTEuNDIyLTIuNTE2LTIuNDA2QTQuNDc0LDQuNDc0LDAsMCwxLDI1LjEsMzIuNGE0LjMwNSw0LjMwNSwwLDAsMSwxLjQyMS0zLjJsLjY1Ny0uNzExLTQuNDMtNC41MzksMS4xNDgtMS4yLDQuNDMsNC41MzkuNzExLS43MTFhMy42LDMuNiwwLDAsMSwxLjQyMi0xLjAzOSw0LjUxNiw0LjUxNiwwLDAsMSwxLjctLjMyOCw0LjcyNSw0LjcyNSwwLDAsMSwzLjI4MiwxLjM2N0wzNy45LDI5LjJ2LjA1NUwzOS4zMiwzMC42OGE0LjE3Myw0LjE3MywwLDAsMSwwLDYuMTc5bC0uNjU2LjY1N1pNMjYuODUyLDMyLjM3NWEyLjc2OCwyLjc2OCwwLDAsMCwuODc1LDIuMDIzbDEuMjU3LDEuMjU4TDM1LjQzOCwyOS4ybC0xLjMxMy0xLjQyMmEyLjY4NCwyLjY4NCwwLDAsMC0xLjk2OS0uODIsMi4yNTIsMi4yNTIsMCwwLDAtMS44Ljc2NmwtMi41NzEsMi43MzRBMi4zOCwyLjM4LDAsMCwwLDI2Ljg1MiwzMi4zNzVaTTM4LjExNywzNS42YTIuMjg0LDIuMjg0LDAsMCwwLC44MjEtMS44LDIuNTM4LDIuNTM4LDAsMCwwLS43NjYtMS44NTlsLTEuNTMxLTEuNDc3LTYuMzQ0LDYuNCwxLjM2NywxLjM2OGguMDU1bC4wNTQuMDU0YTIuMjI3LDIuMjI3LDAsMCwwLDEuNzUuODIxLDIuNjE0LDIuNjE0LDAsMCwwLDEuODYtLjg3NVoiLz48L3N2Zz4=;rounded=0;" parent="1" vertex="1">
          <mxGeometry x="520" y="460" width="50" height="50" as="geometry" />
        </mxCell>
        <mxCell id="1jlto0hH50arYXANZJDi-23" style="edgeStyle=orthogonalEdgeStyle;rounded=0;orthogonalLoop=1;jettySize=auto;html=1;exitX=0;exitY=0.5;exitDx=0;exitDy=0;entryX=1;entryY=0.5;entryDx=0;entryDy=0;" parent="1" source="1jlto0hH50arYXANZJDi-15" target="1jlto0hH50arYXANZJDi-17" edge="1">
          <mxGeometry relative="1" as="geometry" />
        </mxCell>
        <mxCell id="1jlto0hH50arYXANZJDi-15" value="Cloud Integration" style="shape=image;verticalLabelPosition=bottom;verticalAlign=top;imageAspect=0;aspect=fixed;image=data:image/svg+xml,PHN2ZyB4bWxucz0iaHR0cDovL3d3dy53My5vcmcvMjAwMC9zdmciIGlkPSJoY2lwcm9jZXNzZXMiIHZpZXdCb3g9IjQuMDAwMDAxOTA3MzQ4NjMzIDMuOTk5OTk5MDQ2MzI1NjgzNiA0OCA0Ny45OTk5OTYxODUzMDI3MzQiIHdpZHRoPSI0OCIgaGVpZ2h0PSI0Ny45OTk5OTYxODUzMDI3MzQiPjxkZWZzPjxzdHlsZT4uY2xzLTF7ZmlsbDojMGE2ZWQxO30uY2xzLTJ7ZmlsbDojMDUzYjcwO30uY2xzLTN7ZmlsbDojMDc0ZDkyO308L3N0eWxlPjwvZGVmcz48dGl0bGU+aGNpcHJvY2Vzc2VzX2NpcmNsZTwvdGl0bGU+PHBhdGggY2xhc3M9ImNscy0xIiBkPSJNMzkuMzc0LDMwLjQzOEgzNy43NTFhMS42MjYsMS42MjYsMCwwLDAtMS42MjUsMS42MkwzNC41LDMxLjQyNnYtLjk4N2ExLjU4NCwxLjU4NCwwLDAsMC0uMy0uODkzTDM2LDI3LjE2M2MuMDQyLDAsLjA3OS4wMjUuMTIzLjAyNWgxLjYyM2ExLjYyNywxLjYyNywwLDAsMCwxLjYyNi0xLjYyN1YyMy45MzlhMS42MjYsMS42MjYsMCwwLDAtMS42MjYtMS42MjdIMzYuMTI2QTEuNjI2LDEuNjI2LDAsMCwwLDM0LjUsMjMuOTM5djEuNjIyYTEuNiwxLjYsMCwwLDAsLjcwNywxLjMwNkwzMy41OTMsMjlhMS41OSwxLjU5LDAsMCwwLS43MTktLjE4NkgzMS4yNTFhMS41OSwxLjU5LDAsMCwwLS44MDcuMjQ1TDI5LjM4LDI3Ljk5M2ExLjU3OCwxLjU3OCwwLDAsMCwuMjQ1LS44MDdWMjUuNTY0QTEuNjI1LDEuNjI1LDAsMCwwLDI4LDIzLjkzOEgyNi4zNzZhMS42MjUsMS42MjUsMCwwLDAtMS42MjYsMS42MjZ2MS42MjJhMS42MjYsMS42MjYsMCwwLDAsMS42MjYsMS42MjZIMjhhMS41ODksMS41ODksMCwwLDAsLjgwNy0uMjQ0bDEuMDY0LDEuMDY0YTEuNTc4LDEuNTc4LDAsMCwwLS4yNDUuODA3djEuNTQ0bC0xLjg2NC45MDhhMS42LDEuNiwwLDAsMC0xLjM4Ny0uODI5SDI0Ljc1MWExLjYyNiwxLjYyNiwwLDAsMC0xLjYyNiwxLjYyN3YxLjYyMmExLjYyNywxLjYyNywwLDAsMCwxLjYyNiwxLjYyN2gxLjYyM0ExLjYyNywxLjYyNywwLDAsMCwyOCwzNS4zMTFWMzMuNjg5bDAtLjAxLDEuODIxLS44ODdhMS42MSwxLjYxLDAsMCwwLDEuNDMyLjloLjk3MmwuNjM5LDEuNjI3YTEuNjI1LDEuNjI1LDAsMCwwLTEuNjEyLDEuNjI0djEuNjIyYTEuNjI3LDEuNjI3LDAsMCwwLDEuNjI2LDEuNjI3SDM0LjVhMS42MjcsMS42MjcsMCwwLDAsMS42MjYtMS42MjdWMzYuOTM5QTEuNjI2LDEuNjI2LDAsMCwwLDM0LjUsMzUuMzEyaC0uNzY1bC0uNjUzLTEuNjYzYTEuNiwxLjYsMCwwLDAsMS4zNzUtMS4zNjhsMS42NjkuNjQ4di43NTdhMS42MjYsMS42MjYsMCwwLDAsMS42MjYsMS42MjZoMS42MjNBMS42MjYsMS42MjYsMCwwLDAsNDEsMzMuNjg2VjMyLjA2NEExLjYyNSwxLjYyNSwwLDAsMCwzOS4zNzQsMzAuNDM4Wm0tMy4yNDgtNi41SDM3Ljc1djEuNjIzSDM2LjEyNVpNMjgsMjcuMTg4bC0xLjYyNCwwVjI1LjU2MkgyOHYxLjYyNlptLTEuNjI1LDguMTI0SDI0Ljc1VjMzLjY4OGgxLjYyNFptNC44NzYtMy4yNTFWMzAuNDM4aDEuNjI0djEuNjIzWk0zNC41LDM2LjkzOGgwdjEuNjIzSDMyLjg3NVYzNi45MzhabTQuODc1LTMuMjUtMS42MjQsMFYzMi4wNjJoMS42MjN2MS42MjZaIi8+PHBhdGggY2xhc3M9ImNscy0yIiBkPSJNMjMuMTI1LDI4LjgwNUgxOS41NTZhMi45MTgsMi45MTgsMCwwLDEtLjkwOC01LjdMMTkuOSwyMi43bC0uMTQyLTEuMzA4YTQuMzkyLDQuMzkyLDAsMCwxLC44MTEtMi44NjIsMy41MjIsMy41MjIsMCwwLDEsMi42MTctMS4wOSwzLjI4MiwzLjI4MiwwLDAsMSwzLjE3NywyLjE4NWwuNzA3LDEuNzgyLDEuNjQyLS45OWEyLjEyMywyLjEyMywwLDAsMSwxLjEwNi0uMzIsMi4xNTksMi4xNTksMCwwLDEsMi4xMiwxLjc2bC4wODYuNDU3aDEuNjI1Yy0uMDI2LS4yMzctLjA1OS0uNDktLjExNC0uNzU4YTMuNzU5LDMuNzU5LDAsMCwwLTUuNjYyLTIuNTMsNS4xMiw1LjEyLDAsMCwwLTQuNzE2LTMuMjEyYy01LjMzNCwwLTUuMDE0LDUuNzUzLTUuMDE0LDUuNzUzYTQuNTQzLDQuNTQzLDAsMCwwLDEuNDE1LDguODY1aDMuNTY5WiIvPjxwYXRoIGNsYXNzPSJjbHMtMyIgZD0iTTI4LDZBMjIsMjIsMCwxLDEsNiwyOCwyMi4wMjUsMjIuMDI1LDAsMCwxLDI4LDZtMC0yQTI0LDI0LDAsMSwwLDUyLDI4LDI0LDI0LDAsMCwwLDI4LDRaIi8+PC9zdmc+;rounded=0;" parent="1" vertex="1">
          <mxGeometry x="350" y="460" width="50" height="50" as="geometry" />
        </mxCell>
        <mxCell id="1jlto0hH50arYXANZJDi-25" style="edgeStyle=orthogonalEdgeStyle;rounded=0;orthogonalLoop=1;jettySize=auto;html=1;exitX=0.5;exitY=0;exitDx=0;exitDy=0;entryX=0.5;entryY=1;entryDx=0;entryDy=0;" parent="1" source="1jlto0hH50arYXANZJDi-17" target="1jlto0hH50arYXANZJDi-13" edge="1">
          <mxGeometry relative="1" as="geometry" />
        </mxCell>
        <mxCell id="1jlto0hH50arYXANZJDi-17" value="Open Connectors" style="shape=image;verticalLabelPosition=bottom;verticalAlign=top;imageAspect=0;aspect=fixed;image=data:image/svg+xml,PHN2ZyB4bWxucz0iaHR0cDovL3d3dy53My5vcmcvMjAwMC9zdmciIGlkPSJvcGVuY29ubmVjdG9ycyIgdmlld0JveD0iNC4wMDAwMDE5MDczNDg2MzMgMy45OTk5OTkwNDYzMjU2ODM2IDQ4IDQ3Ljk5OTk5NjE4NTMwMjczNCIgd2lkdGg9IjQ4IiBoZWlnaHQ9IjQ3Ljk5OTk5NjE4NTMwMjczNCI+PGRlZnM+PHN0eWxlPi5jbHMtMXtmaWxsOiMwNTNiNzA7fS5jbHMtMntmaWxsOiMwYTZlZDE7fS5jbHMtM3tmaWxsOiMwNzRkOTI7fTwvc3R5bGU+PC9kZWZzPjx0aXRsZT5vcGVuY29ubmVjdG9yc19jaXJjbGU8L3RpdGxlPjxwYXRoIGNsYXNzPSJjbHMtMSIgZD0iTTMyLjU0NCwyMy43NUE0LjI4Myw0LjI4MywwLDAsMCwzMi40ODksMjNhMy43NzgsMy43NzgsMCwwLDAtMy43MDgtMy4wODUsMy43MzUsMy43MzUsMCwwLDAtMS45NDEuNTUzLDUuMTA2LDUuMTA2LDAsMCwwLTQuNy0zLjIxMmMtNC44ODUsMC01LDUuNzU1LTUsNS43NTVBNC41NDEsNC41NDEsMCwwLDAsMTQsMjcuMzE3YzAsMi41MTcsMS41OTMsNC41NTgsNC4xLDQuNTU4aDcuMjcxVjMwLjI1SDE4LjFjLTEuNzE1LDAtMi40ODMtMS40NzMtMi40ODMtMi45MzNhMi45MTYsMi45MTYsMCwwLDEsMi4wMTktMi43NjdsMS4yMjctLjQxNy0uMTIxLTEuMjkxYTQuMzY3LDQuMzY3LDAsMCwxLC44MjEtMi44OSwyLjk3NywyLjk3NywwLDAsMSwyLjYwOS0xLjA3NiwzLjIxLDMuMjEsMCwwLDEsMy4xNTksMi4xODdsLjcwNSwxLjc4MiwxLjYzNy0uOTlhMi4xMTEsMi4xMTEsMCwwLDEsMS4xMDUtLjMyQTIuMTU1LDIuMTU1LDAsMCwxLDMwLjksMjMuM2wuMDM4LjQ1NFoiLz48cGF0aCBjbGFzcz0iY2xzLTIiIGQ9Ik0yMi4xMjQsMzMuNUgxNy4yNXY0Ljg3NWg0Ljg3NFYzNi43NTFoMy4yNTJWMzUuMTI2SDIyLjEyNFpNMjAuNSwzNS4xMjZ2MS42MjNIMTguODc1VjM1LjEyNEgyMC41WiIvPjxwYXRoIGNsYXNzPSJjbHMtMiIgZD0iTTM1LjEyMiwyMy43NWgxLjYyNFYyMC41aDEuNjI3VjE1LjYyNkgzMy41VjIwLjVoMS42MjRabTAtNi41aDEuNjI1djEuNjI1SDM1LjEyM1oiLz48cGF0aCBjbGFzcz0iY2xzLTIiIGQ9Ik0zOS41NzUsMjkuNTYzYTYuOTI0LDYuOTI0LDAsMCwwLTEuMTQyLTEuOTM1QTYuNDQ3LDYuNDQ3LDAsMCwwLDM2LjY5NCwyNi4yYTYuNTE5LDYuNTE5LDAsMCwwLTIuMTYtLjc1NGwwLDBjLS4xNzItLjAyNS0uMzM4LS4wNDItLjUtLjA1NmE4LjQ1MSw4LjQ1MSwwLDAsMC0xLjAzMiwwYy0uMTU5LjAxNC0uMzI1LjAzMS0uNS4wNThhNi4yOTMsNi4yOTMsMCwwLDAtMi4xOC43NTYsNi43NzQsNi43NzQsMCwwLDAtMS43MzQsMS40Miw2LjYsNi42LDAsMCwwLTEuMTYyLDEuOTM4QTYuMzQxLDYuMzQxLDAsMCwwLDI3LDMxLjg3NGE2LjIxNCw2LjIxNCwwLDAsMCwuNTE4LDIuNTE0LDYuNjI2LDYuNjI2LDAsMCwwLDMuNDY3LDMuNDY3LDYuNDQ3LDYuNDQ3LDAsMCwwLDUuMDY0LDAsNi42OTIsNi42OTIsMCwwLDAsMi4wNjYtMS40QTYuNDUsNi40NSwwLDAsMCw0MCwzMS44NzQsNi4zNyw2LjM3LDAsMCwwLDM5LjU3NSwyOS41NjNabS0xLjgtLjU0MkgzNS45MjVhNy4xMzYsNy4xMzYsMCwwLDAtMS4xNDEtMi4xQTQuODQzLDQuODQzLDAsMCwxLDM3Ljc3OSwyOS4wMjFaTTM1LjYsMzEuNzMxYTYuNCw2LjQsMCwwLDEtLjA3MS45NjMsOC4yMjEsOC4yMjEsMCwwLDEtLjE3OC44MDZIMzEuNjgyYTcuOTQxLDcuOTQxLDAsMCwxLS4xNzgtLjgwNiw2LjI3LDYuMjcsMCwwLDEtLjA3MS0uOTYzLDYuNiw2LjYsMCwwLDEsLjE3OC0xLjQ4aDMuODE1QTYuNjYyLDYuNjYyLDAsMCwxLDM1LjYsMzEuNzMxWm0tMi4xLTQuOTJhNC4wMTEsNC4wMTEsMCwwLDEsLjkwOS45MjcsNi4wNjcsNi4wNjcsMCwwLDEsLjcsMS4yODNIMzEuOTMyQTQuNzMyLDQuNzMyLDAsMCwxLDMzLjUsMjYuODExWm0tMS4yNDguMTA3YTcuMTEzLDcuMTEzLDAsMCwwLTEuMTQxLDIuMUgyOS4yNThBNC44MzUsNC44MzUsMCwwLDEsMzIuMjUzLDI2LjkxOFpNMjguNjg3LDMzLjVhNC42NjYsNC42NjYsMCwwLDEtLjIzMi0uNzM1LDQuNTEsNC41MSwwLDAsMSwwLTEuNzgzLDQuNjE4LDQuNjE4LDAsMCwxLC4yMzItLjczMWgyLjEzOWE2LjYsNi42LDAsMCwwLS4xNzgsMS40OCw2LjkxNyw2LjkxNywwLDAsMCwuMjE0LDEuNzY5Wm0yLDIuNjM1YTUuNTI0LDUuNTI0LDAsMCwxLTEuNDI2LTEuNDA5aDEuOTI1YTYuNyw2LjcsMCwwLDAsMS4zOSwyLjE3NUE0LjY5NCw0LjY5NCwwLDAsMSwzMC42ODQsMzYuMTM1Wm0yLjgxNy41NTJhNC4wNDMsNC4wNDMsMCwwLDEtLjgtLjgyLDUuOCw1LjgsMCwwLDEtLjY1OS0xLjE0MUgzNUE0LjM3Niw0LjM3NiwwLDAsMSwzMy41LDM2LjY4N1ptMi44NTItLjU1MmE0LjcsNC43LDAsMCwxLTEuODkuNzY2LDYuNzMyLDYuNzMyLDAsMCwwLDEuMzkxLTIuMTc1aDEuOTI1QTUuNTcyLDUuNTcyLDAsMCwxLDM2LjM1MywzNi4xMzVabTItMi42MzVIMzYuMTc1YTQuNDM0LDQuNDM0LDAsMCwwLC4xNDItLjgwNnEuMDM2LS40NjQuMDM2LS45NjNhNi43OTQsNi43OTQsMCwwLDAtLjE0My0xLjQ4aDIuMTRhNC43NzIsNC43NzIsMCwwLDEsMCwzLjI0OVoiLz48cGF0aCBjbGFzcz0iY2xzLTMiIGQ9Ik0yOCw2QTIyLDIyLDAsMSwxLDYsMjgsMjIuMDI1LDIyLjAyNSwwLDAsMSwyOCw2bTAtMkEyNCwyNCwwLDEsMCw1MiwyOCwyNCwyNCwwLDAsMCwyOCw0WiIvPjwvc3ZnPg==;rounded=0;" parent="1" vertex="1">
          <mxGeometry x="211" y="460" width="50" height="50" as="geometry" />
        </mxCell>
        <mxCell id="1jlto0hH50arYXANZJDi-18" value="" style="shape=image;verticalLabelPosition=bottom;verticalAlign=top;imageAspect=0;aspect=fixed;image=data:image/svg+xml,PHN2ZyB4bWxucz0iaHR0cDovL3d3dy53My5vcmcvMjAwMC9zdmciIGlkPSJpbnRlZ3JhdGlvbi1zdWl0ZSIgdmlld0JveD0iNC4wMDAwMDE5MDczNDg2MzMgMy45OTk5OTkwNDYzMjU2ODM2IDQ4IDQ3Ljk5OTk5NjE4NTMwMjczNCIgd2lkdGg9IjQ4IiBoZWlnaHQ9IjQ3Ljk5OTk5NjE4NTMwMjczNCI+PGRlZnM+PHN0eWxlPi5jbHMtMXtmaWxsOiMwNzRkOTI7fS5jbHMtMntmaWxsOiMwYTZlY2Y7fS5jbHMtM3tmaWxsOiMwMDNiNzQ7fTwvc3R5bGU+PC9kZWZzPjxwYXRoIGNsYXNzPSJjbHMtMSIgZD0iTTI4LDZBMjIsMjIsMCwxLDEsNiwyOCwyMi4wMjUsMjIuMDI1LDAsMCwxLDI4LDZtMC0yQTI0LDI0LDAsMSwwLDUyLDI4LDI0LDI0LDAsMCwwLDI4LDRaIi8+PHBhdGggY2xhc3M9ImNscy0yIiBkPSJNMjEuMzU0LDI5LjM2NGgxLjQ3NWExLjQ3OCwxLjQ3OCwwLDAsMCwxLjQ3Ny0xLjQ3M2wxLjQ3OC41NzR2LjlhMS40NDUsMS40NDUsMCwwLDAsLjI3NS44MTFsLTEuNjQxLDIuMTY3Yy0uMDM5LDAtLjA3Mi0uMDIzLS4xMTItLjAyM0gyMi44MzFBMS40NzksMS40NzksMCwwLDAsMjEuMzUyLDMzLjh2MS40NzVhMS40NzksMS40NzksMCwwLDAsMS40NzksMS40NzhoMS40NzVhMS40NzgsMS40NzgsMCwwLDAsMS40NzgtMS40NzhWMzMuOGExLjQ0OCwxLjQ0OCwwLDAsMC0uNjQzLTEuMTg3bDEuNDY4LTEuOTM4YTEuNDQzLDEuNDQzLDAsMCwwLC42NTQuMTY5aDEuNDc1YTEuNDM1LDEuNDM1LDAsMCwwLC43MzMtLjIyM2wuOTY4Ljk2OGExLjQzNSwxLjQzNSwwLDAsMC0uMjIzLjczM3YxLjQ3NWExLjQ3OSwxLjQ3OSwwLDAsMCwxLjQ3OCwxLjQ3OWgxLjQ3NWExLjQ3OSwxLjQ3OSwwLDAsMCwxLjQ3OS0xLjQ3OVYzMi4zMTlhMS40NzksMS40NzksMCwwLDAtMS40NzktMS40NzhIMzEuNjk0YTEuNDM1LDEuNDM1LDAsMCwwLS43MzMuMjIzbC0uOTY4LS45NjhhMS40MzUsMS40MzUsMCwwLDAsLjIyMy0uNzMzdi0xLjRsMS43LS44MjZhMS40NTcsMS40NTcsMCwwLDAsMS4yNjEuNzUzaDEuNDc1YTEuNDc4LDEuNDc4LDAsMCwwLDEuNDc4LTEuNDc4VjI0LjkzM2ExLjQ3OCwxLjQ3OCwwLDAsMC0xLjQ3OC0xLjQ3OEgzMy4xNzJhMS40NzgsMS40NzgsMCwwLDAtMS40NzksMS40Nzh2MS40NzVsMCwuMDA5LTEuNjU1LjgwNmExLjQ2NSwxLjQ2NSwwLDAsMC0xLjMtLjgxNGgtLjg4NGwtLjU4MS0xLjQ4YTEuNDc3LDEuNDc3LDAsMCwwLDEuNDY2LTEuNDc2VjIxLjk3OEExLjQ3OSwxLjQ3OSwwLDAsMCwyNy4yNiwyMC41SDI1Ljc4NWExLjQ3OCwxLjQ3OCwwLDAsMC0xLjQ3OCwxLjQ3OHYxLjQ3NWExLjQ3OSwxLjQ3OSwwLDAsMCwxLjQ3OCwxLjQ3OWguN2wuNTk0LDEuNTEyYTEuNDUyLDEuNDUyLDAsMCwwLTEuMjUsMS4yNDRMMjQuMzA3LDI3LjFWMjYuNDFhMS40NzgsMS40NzgsMCwwLDAtMS40NzgtMS40NzhIMjEuMzU0YTEuNDc5LDEuNDc5LDAsMCwwLTEuNDc5LDEuNDc4djEuNDc1QTEuNDc5LDEuNDc5LDAsMCwwLDIxLjM1NCwyOS4zNjRabTIuOTUyLDUuOTA5SDIyLjgzVjMzLjhsMS40NzYsMFptNy4zODgtMi45NTVoMS40NzdsMCwxLjQ3NkgzMS42OTNabTEuNDc4LTcuMzg2aDEuNDc2djEuNDc2SDMzLjE3MVptLTQuNDMzLDIuOTU1djEuNDc3SDI3LjI2MWwwLTEuNDc3Wm0tMi45NTQtNC40MzJWMjEuOTc3aDEuNDc2djEuNDc3Wm0tNC40MzEsMi45NTRIMjIuODN2MS40NzZIMjEuMzUyWiIvPjxwYXRoIGNsYXNzPSJjbHMtMiIgZD0iTTM3Ljc0NCwzMy41SDM2LjEyNXYxLjYyNWgxLjYxOWwuMDA2LjAwNi0uMDA2LDMuMjQ0TDE4LjI1LDM4LjM2M2wuMDA2LTMuMjQ0LDEuNjE5LjAwNlYzMy41bC0xLjYxOS0uMDA2YTEuNjMxLDEuNjMxLDAsMCwwLTEuNjMxLDEuNjMxdjMuMjM4YTEuNjMxLDEuNjMxLDAsMCwwLDEuNjMxLDEuNjMxTDM3Ljc0NCw0MGExLjYzMSwxLjYzMSwwLDAsMCwxLjYzMS0xLjYzMVYzNS4xMzFBMS42MzEsMS42MzEsMCwwLDAsMzcuNzQ0LDMzLjVaIi8+PGNpcmNsZSBjbGFzcz0iY2xzLTIiIGN4PSIzMi44NzUiIGN5PSIzNi43NSIgcj0iMC44MTMiLz48Y2lyY2xlIGNsYXNzPSJjbHMtMiIgY3g9IjM1LjMxMyIgY3k9IjM2Ljc1IiByPSIwLjgxMyIvPjxwYXRoIGNsYXNzPSJjbHMtMyIgZD0iTTM3LjY2MywyMS4wMjFhNC42LDQuNiwwLDAsMC02LjkyNC0zLjA5NEE1Ljk2OCw1Ljk2OCwwLDAsMCwyNC45NzIsMTRjLTYuNTM0LDAtNi4xMzEsNy4wMzUtNi4xMzEsNy4wMzVhNS41MzgsNS41MzgsMCwwLDAsMS4wMzQsMTAuNzdWMzAuMThhMy45NDYsMy45NDYsMCwwLDEtMy4yNS0zLjg3Niw0LjAxMyw0LjAxMywwLDAsMSwyLjcyMy0zLjcyNWwxLjIzNC0uNDE2LS4xMjUtMS4yOTRhNC45NDYsNC45NDYsMCwwLDEsMS4wODktMy44QTQuMTkyLDQuMTkyLDAsMCwxLDI1LDE1LjYyNmE0Ljk4OCw0Ljk4OCwwLDAsMSw0LjMzLDIuODkybC42MzcsMS41NTUsMS4zMTMtLjcxNGE0LjExNSw0LjExNSwwLDAsMSwxLjgzNi0uNDg0LDMsMywwLDAsMSwyLjk0OCwyLjQ0N2wuMTU2LjgyOC43NjcuMzVhNC4wNTQsNC4wNTQsMCwwLDEtLjg2NCw3LjY2OHYxLjYyNWE1LjY2NCw1LjY2NCwwLDAsMCwxLjUzOC0xMC43NzJaIi8+PC9zdmc+;labelBackgroundColor=default;rounded=0;" parent="1" vertex="1">
          <mxGeometry x="374" y="290" width="50" height="50" as="geometry" />
        </mxCell>
        <mxCell id="1jlto0hH50arYXANZJDi-21" style="edgeStyle=orthogonalEdgeStyle;rounded=0;orthogonalLoop=1;jettySize=auto;html=1;exitX=0.5;exitY=1;exitDx=0;exitDy=0;entryX=1;entryY=0.5;entryDx=0;entryDy=0;" parent="1" source="1jlto0hH50arYXANZJDi-19" target="1jlto0hH50arYXANZJDi-14" edge="1">
          <mxGeometry relative="1" as="geometry" />
        </mxCell>
        <mxCell id="1jlto0hH50arYXANZJDi-19" value="" style="shape=image;verticalLabelPosition=bottom;verticalAlign=top;imageAspect=0;aspect=fixed;image=data:image/svg+xml,PHN2ZyB4bWxucz0iaHR0cDovL3d3dy53My5vcmcvMjAwMC9zdmciIHZpZXdCb3g9IjAgMCA0OCAyNS4zNDcwMDAxMjIwNzAzMTIiIHdpZHRoPSI0OCIgaGVpZ2h0PSIyNS4zNDcwMDAxMjIwNzAzMTIiPjxkZWZzPjxzdHlsZT4uY2xzLTF7ZmlsbDojNTk1OTU5O308L3N0eWxlPjwvZGVmcz48dGl0bGU+c2FwLWxvZ28tc2hhcGU8L3RpdGxlPjxnIGlkPSJMYXllcl8yIiBkYXRhLW5hbWU9IkxheWVyIDIiPjxnIGlkPSJzYXAtbG9nby1zaGFwZSI+PHBhdGggY2xhc3M9ImNscy0xIiBkPSJNMjUuMzQ2LDI1LjM0N0gwVjBINDhaIi8+PC9nPjwvZz48L3N2Zz4=;rounded=0;" parent="1" vertex="1">
          <mxGeometry x="580" y="390" width="57.6" height="30" as="geometry" />
        </mxCell>
        <mxCell id="1jlto0hH50arYXANZJDi-20" value="&lt;b&gt;&lt;font style=&quot;font-size: 15px;&quot;&gt;SAP Business One&lt;/font&gt;&lt;/b&gt;" style="text;strokeColor=none;align=center;fillColor=none;html=1;verticalAlign=middle;whiteSpace=wrap;rounded=0;" parent="1" vertex="1">
          <mxGeometry x="540" y="360" width="140" height="20" as="geometry" />
        </mxCell>
        <mxCell id="1jlto0hH50arYXANZJDi-27" value="API Cuentas" style="shape=image;verticalLabelPosition=bottom;verticalAlign=top;imageAspect=0;aspect=fixed;image=data:image/svg+xml,PHN2ZyB4bWxucz0iaHR0cDovL3d3dy53My5vcmcvMjAwMC9zdmciIHZpZXdCb3g9Ii0wLjAwNTAzNDg3NjUyMTY3Njc3OSAtMC4wMDAwMDE4ODg1MTU4Mzk3MDk3MjU3IDQ4LjAwMjk2MDIwNTA3ODEyNSAzNS41Mzc4Nzk5NDM4NDc2NTYiIHdpZHRoPSI0OC4wMDI5NjAyMDUwNzgxMjUiIGhlaWdodD0iMzUuNTM3ODc5OTQzODQ3NjU2Ij48ZGVmcz48c3R5bGU+LmNscy0xe2ZpbGw6IzU5NTk1OTt9PC9zdHlsZT48L2RlZnM+PHRpdGxlPmNsb3VkPC90aXRsZT48ZyBpZD0iTGF5ZXJfMiIgZGF0YS1uYW1lPSJMYXllciAyIj48ZyBpZD0iY2xvdWQiPjxwYXRoIGNsYXNzPSJjbHMtMSIgZD0iTTQyLDE0LjUzMWExMS4wNDcsMTEuMDQ3LDAsMCwxLDQuMzU5LDQuMDMxQTExLjMsMTEuMywwLDAsMSw0Ny4yLDI4LjU5NGE5LjIzLDkuMjMsMCwwLDEtMi41NzgsMy41MTYsMTMuMywxMy4zLDAsMCwxLTQuNjQxLDIuNDg0QTIyLjYxNywyMi42MTcsMCwwLDEsMzMsMzUuNTMySDEyQTEyLjQzMywxMi40MzMsMCwwLDEsNy41LDM0LjVhMTQuMzIyLDE0LjMyMiwwLDAsMS0zLjg0NC0yLjQzN0ExMS4yNzksMTEuMjc5LDAsMCwxLC45ODQsMjguNTQ3LDkuNCw5LjQsMCwwLDEsMCwyNC4zNzVhOS40MjgsOS40MjgsMCwwLDEsMi4wMTYtNi4xNDEsMTIuMDIsMTIuMDIsMCwwLDEsNS4zOS0zLjdBOS45MzQsOS45MzQsMCwwLDEsNy41LDguOTUzYTExLjc2LDExLjc2LDAsMCwxLDIuNzE5LTQuNjQxLDE0LjA1NywxNC4wNTcsMCwwLDEsNC41LTMuMTRBMTIuOTg2LDEyLjk4NiwwLDAsMSwyMC4wNjIsMGExMS41NiwxMS41NiwwLDAsMSw1LjUzMiwxLjQwNiwxMS42ODIsMTEuNjgyLDAsMCwxLDQuNSw0LjY4OCwxMS42MzUsMTEuNjM1LDAsMCwxLDQuMDMxLS44NDQsNi42OTIsNi42OTIsMCwwLDEsMy40MjIuODQ0LDcuODM0LDcuODM0LDAsMCwxLDIuNDM3LDIuMiwxMC4zNjksMTAuMzY5LDAsMCwxLDEuNSwzQTEwLjc3MywxMC43NzMsMCwwLDEsNDIsMTQuNTMxWm0tOSwxOHE1LjcxOCwwLDguODU5LTIuMTFBNi43NjEsNi43NjEsMCwwLDAsNDUsMjQuNDY5LDguMDQxLDguMDQxLDAsMCwwLDQzLjgyOCwyMC4yYTcuOCw3LjgsMCwwLDAtMy4yMzQtMi45NTNMMzksMTYuNDA2VjE0LjUzMWE4LjU4Niw4LjU4NiwwLDAsMC0uMjgxLTIuMDYyLDYuOCw2LjgsMCwwLDAtLjg5MS0yLjA2Myw1LjI2OCw1LjI2OCwwLDAsMC0xLjU0Ny0xLjU0NywzLjg3OCwzLjg3OCwwLDAsMC0yLjE1Ni0uNjA5LDYuODE4LDYuODE4LDAsMCwwLTIuOTA2LjY1NkwyOC43ODEsOS45MzgsMjcuNDY5LDcuNTk0YTguMTEyLDguMTEyLDAsMCwwLTMuNy0zLjdBOS43NDMsOS43NDMsMCwwLDAsMjAuMDYyLDNhOS44NzUsOS44NzUsMCwwLDAtNC41NDYsMS4xMjUsMTEuMiwxMS4yLDAsMCwwLTMuNywzLDkuMTc1LDkuMTc1LDAsMCwwLTEuNDUzLDIuNzY2LDYuODYzLDYuODYzLDAsMCwwLS4wNDcsMy45ODRsLjY1NywyLjYyNS0yLjUzMS45MzhhMTEuMjc2LDExLjI3NiwwLDAsMC0zLjY1NywyLjJBNS45NCw1Ljk0LDAsMCwwLDMsMjQuMzc1YTYuMzY3LDYuMzY3LDAsMCwwLC43NSwyLjk1NCw4Ljg3MSw4Ljg3MSwwLDAsMCwyLjAxNiwyLjU3OCwxMS41NzksMTEuNTc5LDAsMCwwLDIuOTA2LDEuODc1LDcuOTE1LDcuOTE1LDAsMCwwLDMuMzI4Ljc1WiIvPjwvZz48L2c+PC9zdmc+;rounded=0;" parent="1" vertex="1">
          <mxGeometry x="-20" y="390" width="53.33" height="40" as="geometry" />
        </mxCell>
        <mxCell id="1jlto0hH50arYXANZJDi-32" value="" style="rounded=0;whiteSpace=wrap;html=1;" parent="1" vertex="1">
          <mxGeometry x="140" y="670" width="320" height="320" as="geometry" />
        </mxCell>
        <mxCell id="1jlto0hH50arYXANZJDi-33" value="" style="rounded=0;whiteSpace=wrap;html=1;" parent="1" vertex="1">
          <mxGeometry x="490" y="670" width="220" height="320" as="geometry" />
        </mxCell>
        <mxCell id="1jlto0hH50arYXANZJDi-34" value="" style="rounded=0;whiteSpace=wrap;html=1;" parent="1" vertex="1">
          <mxGeometry x="-70" y="670" width="180" height="320" as="geometry" />
        </mxCell>
        <mxCell id="1jlto0hH50arYXANZJDi-35" value="&lt;b&gt;&lt;font style=&quot;font-size: 15px;&quot;&gt;SAP BTP&lt;/font&gt;&lt;/b&gt;" style="text;strokeColor=none;align=center;fillColor=none;html=1;verticalAlign=middle;whiteSpace=wrap;rounded=0;" parent="1" vertex="1">
          <mxGeometry x="250" y="630" width="100" height="30" as="geometry" />
        </mxCell>
        <mxCell id="1jlto0hH50arYXANZJDi-36" value="&lt;b&gt;&lt;font style=&quot;font-size: 15px;&quot;&gt;SAP SALES&lt;/font&gt;&lt;/b&gt;" style="text;strokeColor=none;align=center;fillColor=none;html=1;verticalAlign=middle;whiteSpace=wrap;rounded=0;" parent="1" vertex="1">
          <mxGeometry x="-30" y="630" width="100" height="30" as="geometry" />
        </mxCell>
        <mxCell id="1jlto0hH50arYXANZJDi-37" value="&lt;b&gt;&lt;font style=&quot;font-size: 15px;&quot;&gt;HUBSPOT&lt;/font&gt;&lt;/b&gt;" style="text;strokeColor=none;align=center;fillColor=none;html=1;verticalAlign=middle;whiteSpace=wrap;rounded=0;" parent="1" vertex="1">
          <mxGeometry x="550" y="630" width="100" height="30" as="geometry" />
        </mxCell>
        <mxCell id="1jlto0hH50arYXANZJDi-38" value="" style="rounded=0;whiteSpace=wrap;html=1;fontColor=#4f69cc;strokeColor=#5958d0;" parent="1" vertex="1">
          <mxGeometry x="180" y="710" width="240" height="240" as="geometry" />
        </mxCell>
        <mxCell id="1jlto0hH50arYXANZJDi-39" value="&lt;span style=&quot;font-size: 11px;&quot;&gt;&lt;b style=&quot;font-size: 11px;&quot;&gt;SAP Integration Suite&lt;/b&gt;&lt;/span&gt;" style="text;strokeColor=none;align=center;fillColor=none;html=1;verticalAlign=middle;whiteSpace=wrap;rounded=0;fontSize=11;labelBackgroundColor=none;fontColor=#4963ca;" parent="1" vertex="1">
          <mxGeometry x="150" y="710" width="170" height="20" as="geometry" />
        </mxCell>
        <mxCell id="1jlto0hH50arYXANZJDi-40" style="edgeStyle=orthogonalEdgeStyle;rounded=0;orthogonalLoop=1;jettySize=auto;html=1;exitX=1;exitY=0.5;exitDx=0;exitDy=0;entryX=0.5;entryY=0;entryDx=0;entryDy=0;" parent="1" source="1jlto0hH50arYXANZJDi-42" target="1jlto0hH50arYXANZJDi-46" edge="1">
          <mxGeometry relative="1" as="geometry" />
        </mxCell>
        <mxCell id="1jlto0hH50arYXANZJDi-41" style="edgeStyle=orthogonalEdgeStyle;rounded=0;orthogonalLoop=1;jettySize=auto;html=1;exitX=0;exitY=0.5;exitDx=0;exitDy=0;entryX=1;entryY=0.5;entryDx=0;entryDy=0;" parent="1" source="1jlto0hH50arYXANZJDi-42" target="1jlto0hH50arYXANZJDi-54" edge="1">
          <mxGeometry relative="1" as="geometry" />
        </mxCell>
        <mxCell id="1jlto0hH50arYXANZJDi-42" value="Api Management" style="shape=image;verticalLabelPosition=bottom;verticalAlign=top;imageAspect=0;aspect=fixed;image=data:image/svg+xml,PHN2ZyB4bWxucz0iaHR0cDovL3d3dy53My5vcmcvMjAwMC9zdmciIGlkPSJhcGktbWFuYWdlbWVudCIgdmlld0JveD0iNC4wMDAwMDE5MDczNDg2MzMgMy45OTk5OTkwNDYzMjU2ODM2IDQ4IDQ3Ljk5OTk5NjE4NTMwMjczNCIgd2lkdGg9IjQ4IiBoZWlnaHQ9IjQ3Ljk5OTk5NjE4NTMwMjczNCI+PGRlZnM+PHN0eWxlPi5jbHMtMXtmaWxsOiMwNzRkOTI7fS5jbHMtMntmaWxsOiMwNTNiNzA7fS5jbHMtM3tmaWxsOiMwYTZlZDE7fTwvc3R5bGU+PC9kZWZzPjx0aXRsZT5hcGktbWFuYWdlbWVudF9jaXJjbGU8L3RpdGxlPjxwYXRoIGNsYXNzPSJjbHMtMSIgZD0iTTI4LDZBMjIsMjIsMCwxLDEsNiwyOCwyMi4wMjUsMjIuMDI1LDAsMCwxLDI4LDZtMC0yQTI0LDI0LDAsMSwwLDUyLDI4LDI0LDI0LDAsMCwwLDI4LDRaIi8+PHBhdGggY2xhc3M9ImNscy0yIiBkPSJNMjguMjI1LDI5Ljk3OGE4LjM1Miw4LjM1MiwwLDAsMS0xLjUyLS44ODlsLTMuMzg5LDQuNDgyYTQuNDYzLDQuNDYzLDAsMCwwLTEuNjk0LS4zMjhBNC4zNzQsNC4zNzQsMCwxLDAsMjYsMzcuNjE2YTQuMTIsNC4xMiwwLDAsMC0xLjI1Ny0zLjA2MVptLTYuNiwxMC4yNjNhMi42MjUsMi42MjUsMCwxLDEsMi42MjQtMi42MjVBMi41OTEsMi41OTEsMCwwLDEsMjEuNjIyLDQwLjI0MVoiLz48cGF0aCBjbGFzcz0iY2xzLTIiIGQ9Ik0yMC43NDcsMjcuMjNjMC0uMTY0LDAtLjMyOC0uMDU1LS4zODNsMy41LS43MTEtLjAyLS4wNTFjLS4yMzItLjQ2NS0uNC0xLjE5Mi0uNTg0LTEuNjYybC0uMDUyLjAxOS0zLjMzNS43MUE0LjMxNyw0LjMxNywwLDAsMCwxNi4zNzMsMjIuOCw0LjQsNC40LDAsMCwwLDEyLDI3LjIzYTQuMzc0LDQuMzc0LDAsMCwwLDguNzQ3LDBaTTE2LjM3MywyOS44YTIuNTQ1LDIuNTQ1LDAsMCwxLTIuNjI0LTIuNTY5LDIuNjI1LDIuNjI1LDAsMSwxLDUuMjQ5LDBBMi41NDYsMi41NDYsMCwwLDEsMTYuMzczLDI5LjhaIi8+PHBhdGggY2xhc3M9ImNscy0yIiBkPSJNMzUuODksMzMuMjQzaC0uNTQ3TDM0LjUxOCwzMC4yYTguMjgxLDguMjgxLDAsMCwxLTEuNy40MjZsLjgyOSwzLjExM2E0LjM2LDQuMzYsMCwwLDAsMS42OTQsOC4yNTUsNC4zODIsNC4zODIsMCwwLDAsLjU0Ny04Ljc0N1ptMi4zNTEsNC41MzhhMi42NjYsMi42NjYsMCwwLDEtMi43ODksMi40NiwyLjYzLDIuNjMsMCwxLDEsMi43ODktMi40NloiLz48cGF0aCBjbGFzcz0iY2xzLTMiIGQ9Ik0yOC4yMzYsMjkuOTYzYTguMjc3LDguMjc3LDAsMCwwLDMuMzkuNzY1LDguMTMxLDguMTMxLDAsMCwwLDEuMi0uMTA5aDBhOC4zNTQsOC4zNTQsMCwxLDAtOS41NjgtOC4yNTYsOS40NDUsOS40NDUsMCwwLDAsLjI3NCwyLjA3OGwuMDYzLjI1OWE3LjU0LDcuNTQsMCwwLDAsLjU3MywxLjM4NGwuMDIuMDUxYTguMjM0LDguMjM0LDAsMCwwLDIuNTE1LDIuOTUyaDBBOC4zNzUsOC4zNzUsMCwwLDAsMjguMjM2LDI5Ljk2M1ptMS43NS0zLjk5MUgzMy4zMmE2LjgxMiw2LjgxMiwwLDAsMS0xLjY5NCwyLjU3QTYuNSw2LjUsMCwwLDEsMjkuOTg2LDI1Ljk3MlptLS40MzgtMS42OTRhNy4zNDcsNy4zNDcsMCwwLDEtLjIxOC0xLjkxNCw4LjQ0Nyw4LjQ0NywwLDAsMSwuMTY0LTEuN2g0LjMxOWMuMDU0LjYuMTA5LDEuMDk0LjEwOSwxLjdhMTAuNDM5LDEwLjQzOSwwLDAsMS0uMTY0LDEuOTE0Wm0zLjIyNiw0LjY0NmE4LjYxNiw4LjYxNiwwLDAsMCwxLjY0LTIuOTUyaDIuODQyQTYuOTMyLDYuOTMyLDAsMCwxLDMyLjc3NCwyOC45MjRabTUuMy04LjI1NWE1LjMxNyw1LjMxNywwLDAsMSwuMjE4LDEuNyw4LjA4Miw4LjA4MiwwLDAsMS0uMjczLDEuOTE0SDM0LjhhMTAuMzUyLDEwLjM1MiwwLDAsMCwuMTY0LTEuOTE0YzAtLjYtLjA1NC0xLjA5My0uMTA5LTEuN1ptLS43MTEtMS42MzloLTIuOUE3LjM0MSw3LjM0MSwwLDAsMCwzMi43MTksMTUuOCw2LjgxNiw2LjgxNiwwLDAsMSwzNy4zNjYsMTkuMDNabS0zLjk5MSwwSDI5LjkzMWE3LjI2Miw3LjI2MiwwLDAsMSwxLjctMi45QTYuNjY0LDYuNjY0LDAsMCwxLDMzLjM3NSwxOS4wM1pNMzAuNTMyLDE1LjhhOS40LDkuNCwwLDAsMC0xLjc0OSwzLjIyNmgtMi45QTYuOTMzLDYuOTMzLDAsMCwxLDMwLjUzMiwxNS44Wm0tNS4yNDgsOC40NzRhNS40MjgsNS40MjgsMCwwLDEtLjMyOC0xLjkxNCw2LjAyMSw2LjAyMSwwLDAsMSwuMjE5LTEuN2gzLjI4YTguNTIsOC41MiwwLDAsMC0uMTY0LDEuNywxMC40MzksMTAuNDM5LDAsMCwwLC4xNjQsMS45MTRabS43NjYsMS42OTRoMi43ODhhOS42LDkuNiwwLDAsMCwxLjY0LDIuOTUyQTYuODE2LDYuODE2LDAsMCwxLDI2LjA1LDI1Ljk3MloiLz48L3N2Zz4=;rounded=0;" parent="1" vertex="1">
          <mxGeometry x="211" y="760" width="50" height="50" as="geometry" />
        </mxCell>
        <mxCell id="1jlto0hH50arYXANZJDi-45" style="edgeStyle=orthogonalEdgeStyle;rounded=0;orthogonalLoop=1;jettySize=auto;html=1;exitX=0;exitY=0.5;exitDx=0;exitDy=0;entryX=1;entryY=0.5;entryDx=0;entryDy=0;" parent="1" source="1jlto0hH50arYXANZJDi-46" target="1jlto0hH50arYXANZJDi-49" edge="1">
          <mxGeometry relative="1" as="geometry" />
        </mxCell>
        <mxCell id="1jlto0hH50arYXANZJDi-46" value="Cloud Integration" style="shape=image;verticalLabelPosition=bottom;verticalAlign=top;imageAspect=0;aspect=fixed;image=data:image/svg+xml,PHN2ZyB4bWxucz0iaHR0cDovL3d3dy53My5vcmcvMjAwMC9zdmciIGlkPSJoY2lwcm9jZXNzZXMiIHZpZXdCb3g9IjQuMDAwMDAxOTA3MzQ4NjMzIDMuOTk5OTk5MDQ2MzI1NjgzNiA0OCA0Ny45OTk5OTYxODUzMDI3MzQiIHdpZHRoPSI0OCIgaGVpZ2h0PSI0Ny45OTk5OTYxODUzMDI3MzQiPjxkZWZzPjxzdHlsZT4uY2xzLTF7ZmlsbDojMGE2ZWQxO30uY2xzLTJ7ZmlsbDojMDUzYjcwO30uY2xzLTN7ZmlsbDojMDc0ZDkyO308L3N0eWxlPjwvZGVmcz48dGl0bGU+aGNpcHJvY2Vzc2VzX2NpcmNsZTwvdGl0bGU+PHBhdGggY2xhc3M9ImNscy0xIiBkPSJNMzkuMzc0LDMwLjQzOEgzNy43NTFhMS42MjYsMS42MjYsMCwwLDAtMS42MjUsMS42MkwzNC41LDMxLjQyNnYtLjk4N2ExLjU4NCwxLjU4NCwwLDAsMC0uMy0uODkzTDM2LDI3LjE2M2MuMDQyLDAsLjA3OS4wMjUuMTIzLjAyNWgxLjYyM2ExLjYyNywxLjYyNywwLDAsMCwxLjYyNi0xLjYyN1YyMy45MzlhMS42MjYsMS42MjYsMCwwLDAtMS42MjYtMS42MjdIMzYuMTI2QTEuNjI2LDEuNjI2LDAsMCwwLDM0LjUsMjMuOTM5djEuNjIyYTEuNiwxLjYsMCwwLDAsLjcwNywxLjMwNkwzMy41OTMsMjlhMS41OSwxLjU5LDAsMCwwLS43MTktLjE4NkgzMS4yNTFhMS41OSwxLjU5LDAsMCwwLS44MDcuMjQ1TDI5LjM4LDI3Ljk5M2ExLjU3OCwxLjU3OCwwLDAsMCwuMjQ1LS44MDdWMjUuNTY0QTEuNjI1LDEuNjI1LDAsMCwwLDI4LDIzLjkzOEgyNi4zNzZhMS42MjUsMS42MjUsMCwwLDAtMS42MjYsMS42MjZ2MS42MjJhMS42MjYsMS42MjYsMCwwLDAsMS42MjYsMS42MjZIMjhhMS41ODksMS41ODksMCwwLDAsLjgwNy0uMjQ0bDEuMDY0LDEuMDY0YTEuNTc4LDEuNTc4LDAsMCwwLS4yNDUuODA3djEuNTQ0bC0xLjg2NC45MDhhMS42LDEuNiwwLDAsMC0xLjM4Ny0uODI5SDI0Ljc1MWExLjYyNiwxLjYyNiwwLDAsMC0xLjYyNiwxLjYyN3YxLjYyMmExLjYyNywxLjYyNywwLDAsMCwxLjYyNiwxLjYyN2gxLjYyM0ExLjYyNywxLjYyNywwLDAsMCwyOCwzNS4zMTFWMzMuNjg5bDAtLjAxLDEuODIxLS44ODdhMS42MSwxLjYxLDAsMCwwLDEuNDMyLjloLjk3MmwuNjM5LDEuNjI3YTEuNjI1LDEuNjI1LDAsMCwwLTEuNjEyLDEuNjI0djEuNjIyYTEuNjI3LDEuNjI3LDAsMCwwLDEuNjI2LDEuNjI3SDM0LjVhMS42MjcsMS42MjcsMCwwLDAsMS42MjYtMS42MjdWMzYuOTM5QTEuNjI2LDEuNjI2LDAsMCwwLDM0LjUsMzUuMzEyaC0uNzY1bC0uNjUzLTEuNjYzYTEuNiwxLjYsMCwwLDAsMS4zNzUtMS4zNjhsMS42NjkuNjQ4di43NTdhMS42MjYsMS42MjYsMCwwLDAsMS42MjYsMS42MjZoMS42MjNBMS42MjYsMS42MjYsMCwwLDAsNDEsMzMuNjg2VjMyLjA2NEExLjYyNSwxLjYyNSwwLDAsMCwzOS4zNzQsMzAuNDM4Wm0tMy4yNDgtNi41SDM3Ljc1djEuNjIzSDM2LjEyNVpNMjgsMjcuMTg4bC0xLjYyNCwwVjI1LjU2MkgyOHYxLjYyNlptLTEuNjI1LDguMTI0SDI0Ljc1VjMzLjY4OGgxLjYyNFptNC44NzYtMy4yNTFWMzAuNDM4aDEuNjI0djEuNjIzWk0zNC41LDM2LjkzOGgwdjEuNjIzSDMyLjg3NVYzNi45MzhabTQuODc1LTMuMjUtMS42MjQsMFYzMi4wNjJoMS42MjN2MS42MjZaIi8+PHBhdGggY2xhc3M9ImNscy0yIiBkPSJNMjMuMTI1LDI4LjgwNUgxOS41NTZhMi45MTgsMi45MTgsMCwwLDEtLjkwOC01LjdMMTkuOSwyMi43bC0uMTQyLTEuMzA4YTQuMzkyLDQuMzkyLDAsMCwxLC44MTEtMi44NjIsMy41MjIsMy41MjIsMCwwLDEsMi42MTctMS4wOSwzLjI4MiwzLjI4MiwwLDAsMSwzLjE3NywyLjE4NWwuNzA3LDEuNzgyLDEuNjQyLS45OWEyLjEyMywyLjEyMywwLDAsMSwxLjEwNi0uMzIsMi4xNTksMi4xNTksMCwwLDEsMi4xMiwxLjc2bC4wODYuNDU3aDEuNjI1Yy0uMDI2LS4yMzctLjA1OS0uNDktLjExNC0uNzU4YTMuNzU5LDMuNzU5LDAsMCwwLTUuNjYyLTIuNTMsNS4xMiw1LjEyLDAsMCwwLTQuNzE2LTMuMjEyYy01LjMzNCwwLTUuMDE0LDUuNzUzLTUuMDE0LDUuNzUzYTQuNTQzLDQuNTQzLDAsMCwwLDEuNDE1LDguODY1aDMuNTY5WiIvPjxwYXRoIGNsYXNzPSJjbHMtMyIgZD0iTTI4LDZBMjIsMjIsMCwxLDEsNiwyOCwyMi4wMjUsMjIuMDI1LDAsMCwxLDI4LDZtMC0yQTI0LDI0LDAsMSwwLDUyLDI4LDI0LDI0LDAsMCwwLDI4LDRaIi8+PC9zdmc+;rounded=0;" parent="1" vertex="1">
          <mxGeometry x="350" y="878" width="50" height="50" as="geometry" />
        </mxCell>
        <mxCell id="1jlto0hH50arYXANZJDi-48" style="edgeStyle=orthogonalEdgeStyle;rounded=0;orthogonalLoop=1;jettySize=auto;html=1;exitX=0.5;exitY=0;exitDx=0;exitDy=0;entryX=0.5;entryY=1;entryDx=0;entryDy=0;" parent="1" source="1jlto0hH50arYXANZJDi-49" target="1jlto0hH50arYXANZJDi-42" edge="1">
          <mxGeometry relative="1" as="geometry" />
        </mxCell>
        <mxCell id="1jlto0hH50arYXANZJDi-49" value="Open Connectors" style="shape=image;verticalLabelPosition=bottom;verticalAlign=top;imageAspect=0;aspect=fixed;image=data:image/svg+xml,PHN2ZyB4bWxucz0iaHR0cDovL3d3dy53My5vcmcvMjAwMC9zdmciIGlkPSJvcGVuY29ubmVjdG9ycyIgdmlld0JveD0iNC4wMDAwMDE5MDczNDg2MzMgMy45OTk5OTkwNDYzMjU2ODM2IDQ4IDQ3Ljk5OTk5NjE4NTMwMjczNCIgd2lkdGg9IjQ4IiBoZWlnaHQ9IjQ3Ljk5OTk5NjE4NTMwMjczNCI+PGRlZnM+PHN0eWxlPi5jbHMtMXtmaWxsOiMwNTNiNzA7fS5jbHMtMntmaWxsOiMwYTZlZDE7fS5jbHMtM3tmaWxsOiMwNzRkOTI7fTwvc3R5bGU+PC9kZWZzPjx0aXRsZT5vcGVuY29ubmVjdG9yc19jaXJjbGU8L3RpdGxlPjxwYXRoIGNsYXNzPSJjbHMtMSIgZD0iTTMyLjU0NCwyMy43NUE0LjI4Myw0LjI4MywwLDAsMCwzMi40ODksMjNhMy43NzgsMy43NzgsMCwwLDAtMy43MDgtMy4wODUsMy43MzUsMy43MzUsMCwwLDAtMS45NDEuNTUzLDUuMTA2LDUuMTA2LDAsMCwwLTQuNy0zLjIxMmMtNC44ODUsMC01LDUuNzU1LTUsNS43NTVBNC41NDEsNC41NDEsMCwwLDAsMTQsMjcuMzE3YzAsMi41MTcsMS41OTMsNC41NTgsNC4xLDQuNTU4aDcuMjcxVjMwLjI1SDE4LjFjLTEuNzE1LDAtMi40ODMtMS40NzMtMi40ODMtMi45MzNhMi45MTYsMi45MTYsMCwwLDEsMi4wMTktMi43NjdsMS4yMjctLjQxNy0uMTIxLTEuMjkxYTQuMzY3LDQuMzY3LDAsMCwxLC44MjEtMi44OSwyLjk3NywyLjk3NywwLDAsMSwyLjYwOS0xLjA3NiwzLjIxLDMuMjEsMCwwLDEsMy4xNTksMi4xODdsLjcwNSwxLjc4MiwxLjYzNy0uOTlhMi4xMTEsMi4xMTEsMCwwLDEsMS4xMDUtLjMyQTIuMTU1LDIuMTU1LDAsMCwxLDMwLjksMjMuM2wuMDM4LjQ1NFoiLz48cGF0aCBjbGFzcz0iY2xzLTIiIGQ9Ik0yMi4xMjQsMzMuNUgxNy4yNXY0Ljg3NWg0Ljg3NFYzNi43NTFoMy4yNTJWMzUuMTI2SDIyLjEyNFpNMjAuNSwzNS4xMjZ2MS42MjNIMTguODc1VjM1LjEyNEgyMC41WiIvPjxwYXRoIGNsYXNzPSJjbHMtMiIgZD0iTTM1LjEyMiwyMy43NWgxLjYyNFYyMC41aDEuNjI3VjE1LjYyNkgzMy41VjIwLjVoMS42MjRabTAtNi41aDEuNjI1djEuNjI1SDM1LjEyM1oiLz48cGF0aCBjbGFzcz0iY2xzLTIiIGQ9Ik0zOS41NzUsMjkuNTYzYTYuOTI0LDYuOTI0LDAsMCwwLTEuMTQyLTEuOTM1QTYuNDQ3LDYuNDQ3LDAsMCwwLDM2LjY5NCwyNi4yYTYuNTE5LDYuNTE5LDAsMCwwLTIuMTYtLjc1NGwwLDBjLS4xNzItLjAyNS0uMzM4LS4wNDItLjUtLjA1NmE4LjQ1MSw4LjQ1MSwwLDAsMC0xLjAzMiwwYy0uMTU5LjAxNC0uMzI1LjAzMS0uNS4wNThhNi4yOTMsNi4yOTMsMCwwLDAtMi4xOC43NTYsNi43NzQsNi43NzQsMCwwLDAtMS43MzQsMS40Miw2LjYsNi42LDAsMCwwLTEuMTYyLDEuOTM4QTYuMzQxLDYuMzQxLDAsMCwwLDI3LDMxLjg3NGE2LjIxNCw2LjIxNCwwLDAsMCwuNTE4LDIuNTE0LDYuNjI2LDYuNjI2LDAsMCwwLDMuNDY3LDMuNDY3LDYuNDQ3LDYuNDQ3LDAsMCwwLDUuMDY0LDAsNi42OTIsNi42OTIsMCwwLDAsMi4wNjYtMS40QTYuNDUsNi40NSwwLDAsMCw0MCwzMS44NzQsNi4zNyw2LjM3LDAsMCwwLDM5LjU3NSwyOS41NjNabS0xLjgtLjU0MkgzNS45MjVhNy4xMzYsNy4xMzYsMCwwLDAtMS4xNDEtMi4xQTQuODQzLDQuODQzLDAsMCwxLDM3Ljc3OSwyOS4wMjFaTTM1LjYsMzEuNzMxYTYuNCw2LjQsMCwwLDEtLjA3MS45NjMsOC4yMjEsOC4yMjEsMCwwLDEtLjE3OC44MDZIMzEuNjgyYTcuOTQxLDcuOTQxLDAsMCwxLS4xNzgtLjgwNiw2LjI3LDYuMjcsMCwwLDEtLjA3MS0uOTYzLDYuNiw2LjYsMCwwLDEsLjE3OC0xLjQ4aDMuODE1QTYuNjYyLDYuNjYyLDAsMCwxLDM1LjYsMzEuNzMxWm0tMi4xLTQuOTJhNC4wMTEsNC4wMTEsMCwwLDEsLjkwOS45MjcsNi4wNjcsNi4wNjcsMCwwLDEsLjcsMS4yODNIMzEuOTMyQTQuNzMyLDQuNzMyLDAsMCwxLDMzLjUsMjYuODExWm0tMS4yNDguMTA3YTcuMTEzLDcuMTEzLDAsMCwwLTEuMTQxLDIuMUgyOS4yNThBNC44MzUsNC44MzUsMCwwLDEsMzIuMjUzLDI2LjkxOFpNMjguNjg3LDMzLjVhNC42NjYsNC42NjYsMCwwLDEtLjIzMi0uNzM1LDQuNTEsNC41MSwwLDAsMSwwLTEuNzgzLDQuNjE4LDQuNjE4LDAsMCwxLC4yMzItLjczMWgyLjEzOWE2LjYsNi42LDAsMCwwLS4xNzgsMS40OCw2LjkxNyw2LjkxNywwLDAsMCwuMjE0LDEuNzY5Wm0yLDIuNjM1YTUuNTI0LDUuNTI0LDAsMCwxLTEuNDI2LTEuNDA5aDEuOTI1YTYuNyw2LjcsMCwwLDAsMS4zOSwyLjE3NUE0LjY5NCw0LjY5NCwwLDAsMSwzMC42ODQsMzYuMTM1Wm0yLjgxNy41NTJhNC4wNDMsNC4wNDMsMCwwLDEtLjgtLjgyLDUuOCw1LjgsMCwwLDEtLjY1OS0xLjE0MUgzNUE0LjM3Niw0LjM3NiwwLDAsMSwzMy41LDM2LjY4N1ptMi44NTItLjU1MmE0LjcsNC43LDAsMCwxLTEuODkuNzY2LDYuNzMyLDYuNzMyLDAsMCwwLDEuMzkxLTIuMTc1aDEuOTI1QTUuNTcyLDUuNTcyLDAsMCwxLDM2LjM1MywzNi4xMzVabTItMi42MzVIMzYuMTc1YTQuNDM0LDQuNDM0LDAsMCwwLC4xNDItLjgwNnEuMDM2LS40NjQuMDM2LS45NjNhNi43OTQsNi43OTQsMCwwLDAtLjE0My0xLjQ4aDIuMTRhNC43NzIsNC43NzIsMCwwLDEsMCwzLjI0OVoiLz48cGF0aCBjbGFzcz0iY2xzLTMiIGQ9Ik0yOCw2QTIyLDIyLDAsMSwxLDYsMjgsMjIuMDI1LDIyLjAyNSwwLDAsMSwyOCw2bTAtMkEyNCwyNCwwLDEsMCw1MiwyOCwyNCwyNCwwLDAsMCwyOCw0WiIvPjwvc3ZnPg==;rounded=0;" parent="1" vertex="1">
          <mxGeometry x="211" y="878" width="50" height="50" as="geometry" />
        </mxCell>
        <mxCell id="1jlto0hH50arYXANZJDi-50" value="Integration Suite" style="shape=image;verticalLabelPosition=bottom;verticalAlign=top;imageAspect=0;aspect=fixed;image=data:image/svg+xml,PHN2ZyB4bWxucz0iaHR0cDovL3d3dy53My5vcmcvMjAwMC9zdmciIGlkPSJpbnRlZ3JhdGlvbi1zdWl0ZSIgdmlld0JveD0iNC4wMDAwMDE5MDczNDg2MzMgMy45OTk5OTkwNDYzMjU2ODM2IDQ4IDQ3Ljk5OTk5NjE4NTMwMjczNCIgd2lkdGg9IjQ4IiBoZWlnaHQ9IjQ3Ljk5OTk5NjE4NTMwMjczNCI+PGRlZnM+PHN0eWxlPi5jbHMtMXtmaWxsOiMwNzRkOTI7fS5jbHMtMntmaWxsOiMwYTZlY2Y7fS5jbHMtM3tmaWxsOiMwMDNiNzQ7fTwvc3R5bGU+PC9kZWZzPjxwYXRoIGNsYXNzPSJjbHMtMSIgZD0iTTI4LDZBMjIsMjIsMCwxLDEsNiwyOCwyMi4wMjUsMjIuMDI1LDAsMCwxLDI4LDZtMC0yQTI0LDI0LDAsMSwwLDUyLDI4LDI0LDI0LDAsMCwwLDI4LDRaIi8+PHBhdGggY2xhc3M9ImNscy0yIiBkPSJNMjEuMzU0LDI5LjM2NGgxLjQ3NWExLjQ3OCwxLjQ3OCwwLDAsMCwxLjQ3Ny0xLjQ3M2wxLjQ3OC41NzR2LjlhMS40NDUsMS40NDUsMCwwLDAsLjI3NS44MTFsLTEuNjQxLDIuMTY3Yy0uMDM5LDAtLjA3Mi0uMDIzLS4xMTItLjAyM0gyMi44MzFBMS40NzksMS40NzksMCwwLDAsMjEuMzUyLDMzLjh2MS40NzVhMS40NzksMS40NzksMCwwLDAsMS40NzksMS40NzhoMS40NzVhMS40NzgsMS40NzgsMCwwLDAsMS40NzgtMS40NzhWMzMuOGExLjQ0OCwxLjQ0OCwwLDAsMC0uNjQzLTEuMTg3bDEuNDY4LTEuOTM4YTEuNDQzLDEuNDQzLDAsMCwwLC42NTQuMTY5aDEuNDc1YTEuNDM1LDEuNDM1LDAsMCwwLC43MzMtLjIyM2wuOTY4Ljk2OGExLjQzNSwxLjQzNSwwLDAsMC0uMjIzLjczM3YxLjQ3NWExLjQ3OSwxLjQ3OSwwLDAsMCwxLjQ3OCwxLjQ3OWgxLjQ3NWExLjQ3OSwxLjQ3OSwwLDAsMCwxLjQ3OS0xLjQ3OVYzMi4zMTlhMS40NzksMS40NzksMCwwLDAtMS40NzktMS40NzhIMzEuNjk0YTEuNDM1LDEuNDM1LDAsMCwwLS43MzMuMjIzbC0uOTY4LS45NjhhMS40MzUsMS40MzUsMCwwLDAsLjIyMy0uNzMzdi0xLjRsMS43LS44MjZhMS40NTcsMS40NTcsMCwwLDAsMS4yNjEuNzUzaDEuNDc1YTEuNDc4LDEuNDc4LDAsMCwwLDEuNDc4LTEuNDc4VjI0LjkzM2ExLjQ3OCwxLjQ3OCwwLDAsMC0xLjQ3OC0xLjQ3OEgzMy4xNzJhMS40NzgsMS40NzgsMCwwLDAtMS40NzksMS40Nzh2MS40NzVsMCwuMDA5LTEuNjU1LjgwNmExLjQ2NSwxLjQ2NSwwLDAsMC0xLjMtLjgxNGgtLjg4NGwtLjU4MS0xLjQ4YTEuNDc3LDEuNDc3LDAsMCwwLDEuNDY2LTEuNDc2VjIxLjk3OEExLjQ3OSwxLjQ3OSwwLDAsMCwyNy4yNiwyMC41SDI1Ljc4NWExLjQ3OCwxLjQ3OCwwLDAsMC0xLjQ3OCwxLjQ3OHYxLjQ3NWExLjQ3OSwxLjQ3OSwwLDAsMCwxLjQ3OCwxLjQ3OWguN2wuNTk0LDEuNTEyYTEuNDUyLDEuNDUyLDAsMCwwLTEuMjUsMS4yNDRMMjQuMzA3LDI3LjFWMjYuNDFhMS40NzgsMS40NzgsMCwwLDAtMS40NzgtMS40NzhIMjEuMzU0YTEuNDc5LDEuNDc5LDAsMCwwLTEuNDc5LDEuNDc4djEuNDc1QTEuNDc5LDEuNDc5LDAsMCwwLDIxLjM1NCwyOS4zNjRabTIuOTUyLDUuOTA5SDIyLjgzVjMzLjhsMS40NzYsMFptNy4zODgtMi45NTVoMS40NzdsMCwxLjQ3NkgzMS42OTNabTEuNDc4LTcuMzg2aDEuNDc2djEuNDc2SDMzLjE3MVptLTQuNDMzLDIuOTU1djEuNDc3SDI3LjI2MWwwLTEuNDc3Wm0tMi45NTQtNC40MzJWMjEuOTc3aDEuNDc2djEuNDc3Wm0tNC40MzEsMi45NTRIMjIuODN2MS40NzZIMjEuMzUyWiIvPjxwYXRoIGNsYXNzPSJjbHMtMiIgZD0iTTM3Ljc0NCwzMy41SDM2LjEyNXYxLjYyNWgxLjYxOWwuMDA2LjAwNi0uMDA2LDMuMjQ0TDE4LjI1LDM4LjM2M2wuMDA2LTMuMjQ0LDEuNjE5LjAwNlYzMy41bC0xLjYxOS0uMDA2YTEuNjMxLDEuNjMxLDAsMCwwLTEuNjMxLDEuNjMxdjMuMjM4YTEuNjMxLDEuNjMxLDAsMCwwLDEuNjMxLDEuNjMxTDM3Ljc0NCw0MGExLjYzMSwxLjYzMSwwLDAsMCwxLjYzMS0xLjYzMVYzNS4xMzFBMS42MzEsMS42MzEsMCwwLDAsMzcuNzQ0LDMzLjVaIi8+PGNpcmNsZSBjbGFzcz0iY2xzLTIiIGN4PSIzMi44NzUiIGN5PSIzNi43NSIgcj0iMC44MTMiLz48Y2lyY2xlIGNsYXNzPSJjbHMtMiIgY3g9IjM1LjMxMyIgY3k9IjM2Ljc1IiByPSIwLjgxMyIvPjxwYXRoIGNsYXNzPSJjbHMtMyIgZD0iTTM3LjY2MywyMS4wMjFhNC42LDQuNiwwLDAsMC02LjkyNC0zLjA5NEE1Ljk2OCw1Ljk2OCwwLDAsMCwyNC45NzIsMTRjLTYuNTM0LDAtNi4xMzEsNy4wMzUtNi4xMzEsNy4wMzVhNS41MzgsNS41MzgsMCwwLDAsMS4wMzQsMTAuNzdWMzAuMThhMy45NDYsMy45NDYsMCwwLDEtMy4yNS0zLjg3Niw0LjAxMyw0LjAxMywwLDAsMSwyLjcyMy0zLjcyNWwxLjIzNC0uNDE2LS4xMjUtMS4yOTRhNC45NDYsNC45NDYsMCwwLDEsMS4wODktMy44QTQuMTkyLDQuMTkyLDAsMCwxLDI1LDE1LjYyNmE0Ljk4OCw0Ljk4OCwwLDAsMSw0LjMzLDIuODkybC42MzcsMS41NTUsMS4zMTMtLjcxNGE0LjExNSw0LjExNSwwLDAsMSwxLjgzNi0uNDg0LDMsMywwLDAsMSwyLjk0OCwyLjQ0N2wuMTU2LjgyOC43NjcuMzVhNC4wNTQsNC4wNTQsMCwwLDEtLjg2NCw3LjY2OHYxLjYyNWE1LjY2NCw1LjY2NCwwLDAsMCwxLjUzOC0xMC43NzJaIi8+PC9zdmc+;labelBackgroundColor=default;rounded=0;" parent="1" vertex="1">
          <mxGeometry x="374" y="710" width="50" height="50" as="geometry" />
        </mxCell>
        <mxCell id="1jlto0hH50arYXANZJDi-53" value="&lt;b&gt;&lt;font style=&quot;font-size: 15px;&quot;&gt;HUBSPOT&lt;/font&gt;&lt;/b&gt;" style="text;strokeColor=none;align=center;fillColor=none;html=1;verticalAlign=middle;whiteSpace=wrap;rounded=0;" parent="1" vertex="1">
          <mxGeometry x="540" y="780" width="140" height="20" as="geometry" />
        </mxCell>
        <mxCell id="1jlto0hH50arYXANZJDi-54" value="API Cuentas" style="shape=image;verticalLabelPosition=bottom;verticalAlign=top;imageAspect=0;aspect=fixed;image=data:image/svg+xml,PHN2ZyB4bWxucz0iaHR0cDovL3d3dy53My5vcmcvMjAwMC9zdmciIHZpZXdCb3g9Ii0wLjAwNTAzNDg3NjUyMTY3Njc3OSAtMC4wMDAwMDE4ODg1MTU4Mzk3MDk3MjU3IDQ4LjAwMjk2MDIwNTA3ODEyNSAzNS41Mzc4Nzk5NDM4NDc2NTYiIHdpZHRoPSI0OC4wMDI5NjAyMDUwNzgxMjUiIGhlaWdodD0iMzUuNTM3ODc5OTQzODQ3NjU2Ij48ZGVmcz48c3R5bGU+LmNscy0xe2ZpbGw6IzU5NTk1OTt9PC9zdHlsZT48L2RlZnM+PHRpdGxlPmNsb3VkPC90aXRsZT48ZyBpZD0iTGF5ZXJfMiIgZGF0YS1uYW1lPSJMYXllciAyIj48ZyBpZD0iY2xvdWQiPjxwYXRoIGNsYXNzPSJjbHMtMSIgZD0iTTQyLDE0LjUzMWExMS4wNDcsMTEuMDQ3LDAsMCwxLDQuMzU5LDQuMDMxQTExLjMsMTEuMywwLDAsMSw0Ny4yLDI4LjU5NGE5LjIzLDkuMjMsMCwwLDEtMi41NzgsMy41MTYsMTMuMywxMy4zLDAsMCwxLTQuNjQxLDIuNDg0QTIyLjYxNywyMi42MTcsMCwwLDEsMzMsMzUuNTMySDEyQTEyLjQzMywxMi40MzMsMCwwLDEsNy41LDM0LjVhMTQuMzIyLDE0LjMyMiwwLDAsMS0zLjg0NC0yLjQzN0ExMS4yNzksMTEuMjc5LDAsMCwxLC45ODQsMjguNTQ3LDkuNCw5LjQsMCwwLDEsMCwyNC4zNzVhOS40MjgsOS40MjgsMCwwLDEsMi4wMTYtNi4xNDEsMTIuMDIsMTIuMDIsMCwwLDEsNS4zOS0zLjdBOS45MzQsOS45MzQsMCwwLDEsNy41LDguOTUzYTExLjc2LDExLjc2LDAsMCwxLDIuNzE5LTQuNjQxLDE0LjA1NywxNC4wNTcsMCwwLDEsNC41LTMuMTRBMTIuOTg2LDEyLjk4NiwwLDAsMSwyMC4wNjIsMGExMS41NiwxMS41NiwwLDAsMSw1LjUzMiwxLjQwNiwxMS42ODIsMTEuNjgyLDAsMCwxLDQuNSw0LjY4OCwxMS42MzUsMTEuNjM1LDAsMCwxLDQuMDMxLS44NDQsNi42OTIsNi42OTIsMCwwLDEsMy40MjIuODQ0LDcuODM0LDcuODM0LDAsMCwxLDIuNDM3LDIuMiwxMC4zNjksMTAuMzY5LDAsMCwxLDEuNSwzQTEwLjc3MywxMC43NzMsMCwwLDEsNDIsMTQuNTMxWm0tOSwxOHE1LjcxOCwwLDguODU5LTIuMTFBNi43NjEsNi43NjEsMCwwLDAsNDUsMjQuNDY5LDguMDQxLDguMDQxLDAsMCwwLDQzLjgyOCwyMC4yYTcuOCw3LjgsMCwwLDAtMy4yMzQtMi45NTNMMzksMTYuNDA2VjE0LjUzMWE4LjU4Niw4LjU4NiwwLDAsMC0uMjgxLTIuMDYyLDYuOCw2LjgsMCwwLDAtLjg5MS0yLjA2Myw1LjI2OCw1LjI2OCwwLDAsMC0xLjU0Ny0xLjU0NywzLjg3OCwzLjg3OCwwLDAsMC0yLjE1Ni0uNjA5LDYuODE4LDYuODE4LDAsMCwwLTIuOTA2LjY1NkwyOC43ODEsOS45MzgsMjcuNDY5LDcuNTk0YTguMTEyLDguMTEyLDAsMCwwLTMuNy0zLjdBOS43NDMsOS43NDMsMCwwLDAsMjAuMDYyLDNhOS44NzUsOS44NzUsMCwwLDAtNC41NDYsMS4xMjUsMTEuMiwxMS4yLDAsMCwwLTMuNywzLDkuMTc1LDkuMTc1LDAsMCwwLTEuNDUzLDIuNzY2LDYuODYzLDYuODYzLDAsMCwwLS4wNDcsMy45ODRsLjY1NywyLjYyNS0yLjUzMS45MzhhMTEuMjc2LDExLjI3NiwwLDAsMC0zLjY1NywyLjJBNS45NCw1Ljk0LDAsMCwwLDMsMjQuMzc1YTYuMzY3LDYuMzY3LDAsMCwwLC43NSwyLjk1NCw4Ljg3MSw4Ljg3MSwwLDAsMCwyLjAxNiwyLjU3OCwxMS41NzksMTEuNTc5LDAsMCwwLDIuOTA2LDEuODc1LDcuOTE1LDcuOTE1LDAsMCwwLDMuMzI4Ljc1WiIvPjwvZz48L2c+PC9zdmc+;rounded=0;" parent="1" vertex="1">
          <mxGeometry y="810" width="53.33" height="40" as="geometry" />
        </mxCell>
        <mxCell id="OSveSSmtsW_buOM3SsIx-2" style="edgeStyle=orthogonalEdgeStyle;rounded=0;orthogonalLoop=1;jettySize=auto;html=1;exitX=0.5;exitY=1;exitDx=0;exitDy=0;" parent="1" target="1jlto0hH50arYXANZJDi-46" edge="1">
          <mxGeometry relative="1" as="geometry">
            <mxPoint x="610.5" y="854" as="sourcePoint" />
            <mxPoint x="570" y="914.5" as="targetPoint" />
            <Array as="points">
              <mxPoint x="611" y="915" />
            </Array>
          </mxGeometry>
        </mxCell>
        <mxCell id="7WYxqq0Ax24HdgF5x29y-1" value="" style="shape=image;verticalLabelPosition=bottom;verticalAlign=top;imageAspect=0;aspect=fixed;image=data:image/png,iVBORw0KGgoAAAANSUhEUgAAAOEAAADhCAMAAAAJbSJIAAAAz1BMVEX/WzX//////v/8/////f////3+Wzb+XDP9XDX/WjT///z/Uyj+4tr/Th/9XTP8//3+tKX/Vy//Uib/WTn+ShX/3tf/2dT9XjD/VzT/7+39Z0f/qZf+VC38Vyr9VCb+UBj8noT8zsH+Sgn+fmH/6uj+wLX/yLr8oI3/lXv/0sn9dVL9mIH/dVn8gmj9b0n/j3n+ZUX/8/T+7+P+2879rqH9uKv/xb/+tJ/6oIz7Zzz+0cz+bkX9d1r9uaT7Tgz/fGX/ppz+QQD/jXz/7vL+jGnY2tmUAAANU0lEQVR4nO2dC1PbuBaALct6OZGNbYGTxg8IgUBSHoFSlrtst/v4/7/pSqGQOHYSx2Vj0dHX7myZCRkd6+i8dCRblsFgMBgMBoPBYDAYDAaDwWAwGAwGg8FgMBgMBoPBYPgpKKZWjLHnyf/k/2nb43l/CMZpwoUQPEwiKWPb43l/cMI/DU663dHh+Zjy3q83h4G46AIA4Mvfy4lgbY/oXSFe51MX+Db4gY3gCcnYTwtJMVFgT/7rPcbZnIhPIUAOepXQtRFwPic//b0ktrDX6/UsymL5Y4uanw+gY0P3VUDg+AC54Krzs9+LrU4uvOvrVHD1uNqTsHMDfOAj8DaHvoukyqLb4Oe+l3H6eATVF84up9/S9xns7tCYPEEE3tbgG75zx73mfjEiQXAGIXzTi/E3OYmkhXkkWBwiH5YktIEPB5nlNf7e7E/5nfab6kPQzXspbsHi4PQUILgqHwBIrcWQNB5ReAF834Zvmo8Q7BPLa8EJefwS2jZySxJKcwrGWVOtSk7lrEF78ejk0gZ3edRYJ5rjhX7FDP7gnjcaEcEsc/zy0oYn/L2HX4Pkaq18UnvDRt9JSH4uHxsqf+Np752HX4PsywYJwedGDoMGT1JBUUlCBA/z9x7/dsIzsFZLbXjTSEIcPkhvU/ZACMDb/Zua8GuFL3yVEBw3Ct0Iv6vWCR98+elAaWfC8/VaCsC0kYReWLUGXyL6/duaziNcq6UInDbS0uC6HEEooAtH4r0F2Eo6XT+DCHZIk+8MJtXfJ2Pf/v4lZBRWatQLk1Cmdjv7RClh5Ry6DuqLvcdtnuiulU+q71gE1s5jIk9r1mErWoqT6dp16Mo/J8N4d03lMuKrVFNwuX9Lg2M+WychsmW8PHra2Z4S0a18atIfDvbvLShJbiBavxYhQDc5xjs5apwNpDR+OaaxAd2/x6ceFmcVEdYrKoJ+GO6YJ7IE+o5dsjYuvNz/MrQw9iKpVGsldNVcHKY7aSqxwkfoywimxHUL+SH2GGPfjtbHpkAlj+7nXbIMRnF+p3RylS/NsrF3gAwP5rVgaVoghOrhQ7c4BfA3QWP5POra1eDWlY/GWSTWtu/AI9FW3ZTiKLu+ByqIgfZcXx/P5PiKmnsiojiun6OnExvavv32mORyPuKkBUMzh8ipYfzp8W7u5N3/jbPO8BgU41Ub9J86uH6tjKaBdBnLif7B0LO86L+UYz0eleqHWSI6v09+pzwPiEXCSdFN+jYENzvUWWiUiulsYcG615xaEWlrHb7CWPC6W4HT7BCuBl8P3xjBXu0YZ9hdxKdfQk+zHTvqBeJAOYslXOk2Uly/Os+XJDzo6CZhj0aYXxWdCPTB7Jl7tXNGvSX0MPFo4vWXJZTWFcpso/ZI9ZbwBTb8qmoPaOG9XXjCsVdPUYsSNq+f/7fkU1W7Luye3km3Ucuv6S+hmikWfp7JWGfhuV0bymyjlj39ABLOlVG6jSWT6rgq1fqj1j6//hL+gA0fpaIuaarjw650G/THI1jLh5FQDvXKhUu74KpG4TxzYm0R8eNIGEcJvoOL6v887VDZxpa9+Y8joXSNTJwsQjiZf0AEwcm3Lb7/40iooGIqVbOYNN7dZpjE63PGjyUhsfhnB/grVcIbmdOuj1U+loQ4Yml4DwpziFz4IIJfRUKZJdNoeFCYQbVP302TNdaGBX8dLknIf7I7Zy/EUX6FVpJGKLMNy1uq/FPGCGWkI4I/x/1FLHQ0/p3zLFAdbhrPZY/gxBsV94whBANBFqPGmBIrE9cHh+pzi3UrnQ26//7EE2I12s/aDzTyYibOwXKt15Fpx6VcjK+fYZSFncGPx+AvOnUcV/0WPLoQWUu1mjpIm8IoFcfLk+iq4v0/t28VY/zt0zmE0JZmCKnq5JtVUrONpMTOY9asw2OPhBMH2mip2ugD90JgHBPqhfQEbAE6AxHIjzKNtbWXH0HkLyS053sbAesFwy9SgA07rlJbbTmX/VOuqntty7EejKXbWNqqdx254KTbyCZ9aU+q9isWqCYU6MLzPIjituVYD8GMXy3tyPnzarkzGc9b2dyNc4ikefWl0ZldhxrPoaLzNFLbSxul2Qi84XIparwWrUAVqezGEvoOHHAaaSyhzPDF8fqGse0SSsdxMLQ0PvRAIopX9zZ2AUHXhgdc4zmcE3RktoGq+y5qSTnmUhfa3q3ZgPTaKtvY6B02SujC08QjGkdxkRXh/MppvBh9F9oxqb2v3AKeFWOS0FHjOXR8eCi09hiWqlIFfzkVblGVdBBC7nwrGan91YrOBQkchJqfkyM4GwO33Dvjo5dGfbc/Gr3009pr1mtbe/t1iUhHjbzc8ezIjOPsgnDO8zz/9NslqnaeditdRLvgqZ7uCmNjg+5NHqbEIy89Ann2vXSmY/4kYMM23b0RUFjSPnUu7O5qWBw46wwPoC/DPLfwOGQgfii8ts8nbiI8gyWPL2U450n5LDG/nkFkr5olF056GvtExit6EG0wFoSWM1wciKNSUVkGbydc4wi8M6haXNNcLb6SF/AoUdsfxWqkShhTXSsahFDRBat9jQh+z9eeIWbqF0pPZJBoug4xUaczi5ZDZviXww39ayR1yja1m+sqYZyUlFR6QR6w9WdPcXZTmkMk1XSf464PIfkldFy7ONppRilbK2FEpLVZBd7sv/27FoTwcqzZH260/JQGn6FdrDgieKarhL3bkoBgnG3+HWYND1c6AmX8o2nkxoKL0pqyM7bRahAc98awaE9t5LZxuLQGuOJ45v2WtjcidTsFxRMnMsHSNMGgvHy0b9CxttayxajY1Sl9/p+aRt/8siThVbD9zH34tfg7qOlBx/8eXj4V5pHte7yryo3mU68lvFyiyen2GDMbr0gIYQunZ2sh+qW8Imd46zpML1ZqAhA86LlrSiu0tM5FE+Vzq1BTCT1+WJLwdrM7nJN+X12H8EBTCcP7koSnwfYqfeesqKXIAd/1XIek4qj7ONuezPKjYtiGfF29BQsPShKe1Ej1creY58ufnvX0+DQ7LknoiK0BWHC1UsmQP7RxcU0N1A0fqxLCm63ZLD+H9kpOOdM0t7BoXs4Pj8RGS4Njkq7euIBgC0e8a4FpOV9HYLL5Dhoc/rG6B+CDweaksjUwSct1GtgdbvodUqHZCE70NDSWR3vXq6N1HTDYpHJ4WI6D0Gz/d0nURozKx8Dhc1YdukWBRYcP5XIp/KpnRDOnM0DlvUN0Xd03TIknBoWDGz94DvSdQ0arrjFxP1VOCmFiMO/AXGEkqKZVfUVFmq/uzrypOhgViDNQ1dd3nAQad5wEk8q9XXiehDHGRPVOMSxhOOCTUcXthQi6G41v69DhYXVvm/8lzwKPUmpF1CMkGX66BKB8/4Zva1vB+AFm1VcmSVHQ2VUu8jDLQs7j6ZFq8ncrFu0s1zMmfYVa4qRaRAdBCEb/O3t4+NqdqVZ9sHxT5OJJ/N3azab1IBFJkbv+9peNqFtj7oXm/TSYkOwCVN9etg11hZET9zTuhlZQnAZ3G27w2YQPXPhvqnNHu4KRtC8H2qgDE9ngD0517tyLYmyxbNaoN9FRV2rLZLJtGTZDWRxko/U3S26cP9U81K136r09aNxjM+A26qBVTfCjMNDcjlq9tA9LPU415xCALsc695bKNRjFUsDXEasrztURgzrSqZP9CFxq/nYCr+el6T/LflAlfpvPy7zNn0opH4eaayiOGe4vCQgh7M+v2qszhz6YnYa6vyWEzdfgYrdaXUgu86P+JskWnz1PEk/HrBdL70wZjdQ7aVKyWIMqjwBSQHVUaOCqvl9ku6BcrUAunL+fYDTR9SQJkWE2sShhHmPxbKGiyJYqmr5Y/o7qGZ6n+U4pzlFn1iC8m37rtXE3ex2wRwPOO0HGc9Zfspo2VDP4srtNgzD/baReilC+yX7+gpd/RWJ5ka5mNMkvLlUr4uxECVhcg/TlLjalycnw+awPK6ob3e8e71DS4OLePcAYJeK4XAhE6uLI+RpcJgjF9eB8pD7+8o4LODs6uIjVgXxtiWLWOSp1y859m1qDJcsfB1KhM+/67+Pj6c3zbSB4lvaozrcNWDgfVdRyZY4H39Zg4eMewYywXpAkaRIE0khF1KM6vwsMi0OAnIqbXOdWtHwfIrWYRSj1VCVRNSRKiRnB2ztR2iOsiFfkGvTLa/CDwlJQPknpIOnoM+0zoHp0Hivq8TKL7S9uy/zYYFF1L7A0o7RqDX48KO3FVfVC9WKvX2MRYpw+V90jL2dV157CHWE4vaq8KR/p2nG3K4Sw0yoJ4S8jIbbiT5VvxnF13xmrC8OEu6DyCKjm5z/rQrAnLqt2N4HLfwlnqN7q15tW5RXgXNNepgYw0S96/Pm+QxsvqPrPCK5WbhRU+w5fuL7nd3eHHxTPKjkIdIWup1ubQKl4KM4h6IaW7lXdHRFjODcvqhyKIDjXfN+hCdnT2UssI//cT/ivkRcWiBjPpmeH3e7X8RPv6b7/3gRGI5yGOc95EmCt77A0GAwGg8FgMBgMBoPBYDAYDAaDwWAwGAwGg8FgMBgMvxD/B6/yxWtK4tRDAAAAAElFTkSuQmCC" parent="1" vertex="1">
          <mxGeometry x="585" y="805" width="50" height="50" as="geometry" />
        </mxCell>
        <mxCell id="7WYxqq0Ax24HdgF5x29y-3" value="" style="rounded=0;whiteSpace=wrap;html=1;" parent="1" vertex="1">
          <mxGeometry x="-710" y="670" width="320" height="320" as="geometry" />
        </mxCell>
        <mxCell id="7WYxqq0Ax24HdgF5x29y-4" value="" style="rounded=0;whiteSpace=wrap;html=1;" parent="1" vertex="1">
          <mxGeometry x="-360" y="670" width="220" height="320" as="geometry" />
        </mxCell>
        <mxCell id="7WYxqq0Ax24HdgF5x29y-5" value="" style="rounded=0;whiteSpace=wrap;html=1;" parent="1" vertex="1">
          <mxGeometry x="-920" y="670" width="180" height="320" as="geometry" />
        </mxCell>
        <mxCell id="7WYxqq0Ax24HdgF5x29y-6" value="&lt;b&gt;&lt;font style=&quot;font-size: 15px;&quot;&gt;SAP BTP&lt;/font&gt;&lt;/b&gt;" style="text;strokeColor=none;align=center;fillColor=none;html=1;verticalAlign=middle;whiteSpace=wrap;rounded=0;" parent="1" vertex="1">
          <mxGeometry x="-600" y="630" width="100" height="30" as="geometry" />
        </mxCell>
        <mxCell id="7WYxqq0Ax24HdgF5x29y-7" value="&lt;b&gt;&lt;font style=&quot;font-size: 15px;&quot;&gt;SAP SALES&lt;/font&gt;&lt;/b&gt;" style="text;strokeColor=none;align=center;fillColor=none;html=1;verticalAlign=middle;whiteSpace=wrap;rounded=0;" parent="1" vertex="1">
          <mxGeometry x="-880" y="630" width="100" height="30" as="geometry" />
        </mxCell>
        <mxCell id="7WYxqq0Ax24HdgF5x29y-8" value="&lt;b&gt;&lt;font style=&quot;font-size: 15px;&quot;&gt;PDF&lt;/font&gt;&lt;/b&gt;" style="text;strokeColor=none;align=center;fillColor=none;html=1;verticalAlign=middle;whiteSpace=wrap;rounded=0;" parent="1" vertex="1">
          <mxGeometry x="-300" y="630" width="100" height="30" as="geometry" />
        </mxCell>
        <mxCell id="7WYxqq0Ax24HdgF5x29y-9" value="" style="rounded=0;whiteSpace=wrap;html=1;fontColor=#4f69cc;strokeColor=#5958d0;" parent="1" vertex="1">
          <mxGeometry x="-670" y="710" width="240" height="240" as="geometry" />
        </mxCell>
        <mxCell id="7WYxqq0Ax24HdgF5x29y-10" value="&lt;span style=&quot;font-size: 11px;&quot;&gt;&lt;b style=&quot;font-size: 11px;&quot;&gt;SAP Integration Suite&lt;/b&gt;&lt;/span&gt;" style="text;strokeColor=none;align=center;fillColor=none;html=1;verticalAlign=middle;whiteSpace=wrap;rounded=0;fontSize=11;labelBackgroundColor=none;fontColor=#4963ca;" parent="1" vertex="1">
          <mxGeometry x="-700" y="710" width="170" height="20" as="geometry" />
        </mxCell>
        <mxCell id="7WYxqq0Ax24HdgF5x29y-11" style="edgeStyle=orthogonalEdgeStyle;rounded=0;orthogonalLoop=1;jettySize=auto;html=1;exitX=1;exitY=0.5;exitDx=0;exitDy=0;entryX=0.5;entryY=0;entryDx=0;entryDy=0;" parent="1" source="7WYxqq0Ax24HdgF5x29y-13" target="7WYxqq0Ax24HdgF5x29y-15" edge="1">
          <mxGeometry relative="1" as="geometry" />
        </mxCell>
        <mxCell id="7WYxqq0Ax24HdgF5x29y-12" style="edgeStyle=orthogonalEdgeStyle;rounded=0;orthogonalLoop=1;jettySize=auto;html=1;exitX=0;exitY=0.5;exitDx=0;exitDy=0;entryX=1;entryY=0.5;entryDx=0;entryDy=0;" parent="1" source="7WYxqq0Ax24HdgF5x29y-13" target="7WYxqq0Ax24HdgF5x29y-21" edge="1">
          <mxGeometry relative="1" as="geometry" />
        </mxCell>
        <mxCell id="7WYxqq0Ax24HdgF5x29y-13" value="" style="shape=image;verticalLabelPosition=bottom;verticalAlign=top;imageAspect=0;aspect=fixed;image=data:image/svg+xml,PHN2ZyB4bWxucz0iaHR0cDovL3d3dy53My5vcmcvMjAwMC9zdmciIGlkPSJhcGktbWFuYWdlbWVudCIgdmlld0JveD0iNC4wMDAwMDE5MDczNDg2MzMgMy45OTk5OTkwNDYzMjU2ODM2IDQ4IDQ3Ljk5OTk5NjE4NTMwMjczNCIgd2lkdGg9IjQ4IiBoZWlnaHQ9IjQ3Ljk5OTk5NjE4NTMwMjczNCI+PGRlZnM+PHN0eWxlPi5jbHMtMXtmaWxsOiMwNzRkOTI7fS5jbHMtMntmaWxsOiMwNTNiNzA7fS5jbHMtM3tmaWxsOiMwYTZlZDE7fTwvc3R5bGU+PC9kZWZzPjx0aXRsZT5hcGktbWFuYWdlbWVudF9jaXJjbGU8L3RpdGxlPjxwYXRoIGNsYXNzPSJjbHMtMSIgZD0iTTI4LDZBMjIsMjIsMCwxLDEsNiwyOCwyMi4wMjUsMjIuMDI1LDAsMCwxLDI4LDZtMC0yQTI0LDI0LDAsMSwwLDUyLDI4LDI0LDI0LDAsMCwwLDI4LDRaIi8+PHBhdGggY2xhc3M9ImNscy0yIiBkPSJNMjguMjI1LDI5Ljk3OGE4LjM1Miw4LjM1MiwwLDAsMS0xLjUyLS44ODlsLTMuMzg5LDQuNDgyYTQuNDYzLDQuNDYzLDAsMCwwLTEuNjk0LS4zMjhBNC4zNzQsNC4zNzQsMCwxLDAsMjYsMzcuNjE2YTQuMTIsNC4xMiwwLDAsMC0xLjI1Ny0zLjA2MVptLTYuNiwxMC4yNjNhMi42MjUsMi42MjUsMCwxLDEsMi42MjQtMi42MjVBMi41OTEsMi41OTEsMCwwLDEsMjEuNjIyLDQwLjI0MVoiLz48cGF0aCBjbGFzcz0iY2xzLTIiIGQ9Ik0yMC43NDcsMjcuMjNjMC0uMTY0LDAtLjMyOC0uMDU1LS4zODNsMy41LS43MTEtLjAyLS4wNTFjLS4yMzItLjQ2NS0uNC0xLjE5Mi0uNTg0LTEuNjYybC0uMDUyLjAxOS0zLjMzNS43MUE0LjMxNyw0LjMxNywwLDAsMCwxNi4zNzMsMjIuOCw0LjQsNC40LDAsMCwwLDEyLDI3LjIzYTQuMzc0LDQuMzc0LDAsMCwwLDguNzQ3LDBaTTE2LjM3MywyOS44YTIuNTQ1LDIuNTQ1LDAsMCwxLTIuNjI0LTIuNTY5LDIuNjI1LDIuNjI1LDAsMSwxLDUuMjQ5LDBBMi41NDYsMi41NDYsMCwwLDEsMTYuMzczLDI5LjhaIi8+PHBhdGggY2xhc3M9ImNscy0yIiBkPSJNMzUuODksMzMuMjQzaC0uNTQ3TDM0LjUxOCwzMC4yYTguMjgxLDguMjgxLDAsMCwxLTEuNy40MjZsLjgyOSwzLjExM2E0LjM2LDQuMzYsMCwwLDAsMS42OTQsOC4yNTUsNC4zODIsNC4zODIsMCwwLDAsLjU0Ny04Ljc0N1ptMi4zNTEsNC41MzhhMi42NjYsMi42NjYsMCwwLDEtMi43ODksMi40NiwyLjYzLDIuNjMsMCwxLDEsMi43ODktMi40NloiLz48cGF0aCBjbGFzcz0iY2xzLTMiIGQ9Ik0yOC4yMzYsMjkuOTYzYTguMjc3LDguMjc3LDAsMCwwLDMuMzkuNzY1LDguMTMxLDguMTMxLDAsMCwwLDEuMi0uMTA5aDBhOC4zNTQsOC4zNTQsMCwxLDAtOS41NjgtOC4yNTYsOS40NDUsOS40NDUsMCwwLDAsLjI3NCwyLjA3OGwuMDYzLjI1OWE3LjU0LDcuNTQsMCwwLDAsLjU3MywxLjM4NGwuMDIuMDUxYTguMjM0LDguMjM0LDAsMCwwLDIuNTE1LDIuOTUyaDBBOC4zNzUsOC4zNzUsMCwwLDAsMjguMjM2LDI5Ljk2M1ptMS43NS0zLjk5MUgzMy4zMmE2LjgxMiw2LjgxMiwwLDAsMS0xLjY5NCwyLjU3QTYuNSw2LjUsMCwwLDEsMjkuOTg2LDI1Ljk3MlptLS40MzgtMS42OTRhNy4zNDcsNy4zNDcsMCwwLDEtLjIxOC0xLjkxNCw4LjQ0Nyw4LjQ0NywwLDAsMSwuMTY0LTEuN2g0LjMxOWMuMDU0LjYuMTA5LDEuMDk0LjEwOSwxLjdhMTAuNDM5LDEwLjQzOSwwLDAsMS0uMTY0LDEuOTE0Wm0zLjIyNiw0LjY0NmE4LjYxNiw4LjYxNiwwLDAsMCwxLjY0LTIuOTUyaDIuODQyQTYuOTMyLDYuOTMyLDAsMCwxLDMyLjc3NCwyOC45MjRabTUuMy04LjI1NWE1LjMxNyw1LjMxNywwLDAsMSwuMjE4LDEuNyw4LjA4Miw4LjA4MiwwLDAsMS0uMjczLDEuOTE0SDM0LjhhMTAuMzUyLDEwLjM1MiwwLDAsMCwuMTY0LTEuOTE0YzAtLjYtLjA1NC0xLjA5My0uMTA5LTEuN1ptLS43MTEtMS42MzloLTIuOUE3LjM0MSw3LjM0MSwwLDAsMCwzMi43MTksMTUuOCw2LjgxNiw2LjgxNiwwLDAsMSwzNy4zNjYsMTkuMDNabS0zLjk5MSwwSDI5LjkzMWE3LjI2Miw3LjI2MiwwLDAsMSwxLjctMi45QTYuNjY0LDYuNjY0LDAsMCwxLDMzLjM3NSwxOS4wM1pNMzAuNTMyLDE1LjhhOS40LDkuNCwwLDAsMC0xLjc0OSwzLjIyNmgtMi45QTYuOTMzLDYuOTMzLDAsMCwxLDMwLjUzMiwxNS44Wm0tNS4yNDgsOC40NzRhNS40MjgsNS40MjgsMCwwLDEtLjMyOC0xLjkxNCw2LjAyMSw2LjAyMSwwLDAsMSwuMjE5LTEuN2gzLjI4YTguNTIsOC41MiwwLDAsMC0uMTY0LDEuNywxMC40MzksMTAuNDM5LDAsMCwwLC4xNjQsMS45MTRabS43NjYsMS42OTRoMi43ODhhOS42LDkuNiwwLDAsMCwxLjY0LDIuOTUyQTYuODE2LDYuODE2LDAsMCwxLDI2LjA1LDI1Ljk3MloiLz48L3N2Zz4=;rounded=0;" parent="1" vertex="1">
          <mxGeometry x="-639" y="760" width="50" height="50" as="geometry" />
        </mxCell>
        <mxCell id="7WYxqq0Ax24HdgF5x29y-14" style="edgeStyle=orthogonalEdgeStyle;rounded=0;orthogonalLoop=1;jettySize=auto;html=1;exitX=0;exitY=0.5;exitDx=0;exitDy=0;entryX=1;entryY=0.5;entryDx=0;entryDy=0;" parent="1" source="7WYxqq0Ax24HdgF5x29y-15" target="7WYxqq0Ax24HdgF5x29y-18" edge="1">
          <mxGeometry relative="1" as="geometry" />
        </mxCell>
        <mxCell id="7WYxqq0Ax24HdgF5x29y-15" value="" style="shape=image;verticalLabelPosition=bottom;verticalAlign=top;imageAspect=0;aspect=fixed;image=data:image/svg+xml,PHN2ZyB4bWxucz0iaHR0cDovL3d3dy53My5vcmcvMjAwMC9zdmciIGlkPSJoY2lwcm9jZXNzZXMiIHZpZXdCb3g9IjQuMDAwMDAxOTA3MzQ4NjMzIDMuOTk5OTk5MDQ2MzI1NjgzNiA0OCA0Ny45OTk5OTYxODUzMDI3MzQiIHdpZHRoPSI0OCIgaGVpZ2h0PSI0Ny45OTk5OTYxODUzMDI3MzQiPjxkZWZzPjxzdHlsZT4uY2xzLTF7ZmlsbDojMGE2ZWQxO30uY2xzLTJ7ZmlsbDojMDUzYjcwO30uY2xzLTN7ZmlsbDojMDc0ZDkyO308L3N0eWxlPjwvZGVmcz48dGl0bGU+aGNpcHJvY2Vzc2VzX2NpcmNsZTwvdGl0bGU+PHBhdGggY2xhc3M9ImNscy0xIiBkPSJNMzkuMzc0LDMwLjQzOEgzNy43NTFhMS42MjYsMS42MjYsMCwwLDAtMS42MjUsMS42MkwzNC41LDMxLjQyNnYtLjk4N2ExLjU4NCwxLjU4NCwwLDAsMC0uMy0uODkzTDM2LDI3LjE2M2MuMDQyLDAsLjA3OS4wMjUuMTIzLjAyNWgxLjYyM2ExLjYyNywxLjYyNywwLDAsMCwxLjYyNi0xLjYyN1YyMy45MzlhMS42MjYsMS42MjYsMCwwLDAtMS42MjYtMS42MjdIMzYuMTI2QTEuNjI2LDEuNjI2LDAsMCwwLDM0LjUsMjMuOTM5djEuNjIyYTEuNiwxLjYsMCwwLDAsLjcwNywxLjMwNkwzMy41OTMsMjlhMS41OSwxLjU5LDAsMCwwLS43MTktLjE4NkgzMS4yNTFhMS41OSwxLjU5LDAsMCwwLS44MDcuMjQ1TDI5LjM4LDI3Ljk5M2ExLjU3OCwxLjU3OCwwLDAsMCwuMjQ1LS44MDdWMjUuNTY0QTEuNjI1LDEuNjI1LDAsMCwwLDI4LDIzLjkzOEgyNi4zNzZhMS42MjUsMS42MjUsMCwwLDAtMS42MjYsMS42MjZ2MS42MjJhMS42MjYsMS42MjYsMCwwLDAsMS42MjYsMS42MjZIMjhhMS41ODksMS41ODksMCwwLDAsLjgwNy0uMjQ0bDEuMDY0LDEuMDY0YTEuNTc4LDEuNTc4LDAsMCwwLS4yNDUuODA3djEuNTQ0bC0xLjg2NC45MDhhMS42LDEuNiwwLDAsMC0xLjM4Ny0uODI5SDI0Ljc1MWExLjYyNiwxLjYyNiwwLDAsMC0xLjYyNiwxLjYyN3YxLjYyMmExLjYyNywxLjYyNywwLDAsMCwxLjYyNiwxLjYyN2gxLjYyM0ExLjYyNywxLjYyNywwLDAsMCwyOCwzNS4zMTFWMzMuNjg5bDAtLjAxLDEuODIxLS44ODdhMS42MSwxLjYxLDAsMCwwLDEuNDMyLjloLjk3MmwuNjM5LDEuNjI3YTEuNjI1LDEuNjI1LDAsMCwwLTEuNjEyLDEuNjI0djEuNjIyYTEuNjI3LDEuNjI3LDAsMCwwLDEuNjI2LDEuNjI3SDM0LjVhMS42MjcsMS42MjcsMCwwLDAsMS42MjYtMS42MjdWMzYuOTM5QTEuNjI2LDEuNjI2LDAsMCwwLDM0LjUsMzUuMzEyaC0uNzY1bC0uNjUzLTEuNjYzYTEuNiwxLjYsMCwwLDAsMS4zNzUtMS4zNjhsMS42NjkuNjQ4di43NTdhMS42MjYsMS42MjYsMCwwLDAsMS42MjYsMS42MjZoMS42MjNBMS42MjYsMS42MjYsMCwwLDAsNDEsMzMuNjg2VjMyLjA2NEExLjYyNSwxLjYyNSwwLDAsMCwzOS4zNzQsMzAuNDM4Wm0tMy4yNDgtNi41SDM3Ljc1djEuNjIzSDM2LjEyNVpNMjgsMjcuMTg4bC0xLjYyNCwwVjI1LjU2MkgyOHYxLjYyNlptLTEuNjI1LDguMTI0SDI0Ljc1VjMzLjY4OGgxLjYyNFptNC44NzYtMy4yNTFWMzAuNDM4aDEuNjI0djEuNjIzWk0zNC41LDM2LjkzOGgwdjEuNjIzSDMyLjg3NVYzNi45MzhabTQuODc1LTMuMjUtMS42MjQsMFYzMi4wNjJoMS42MjN2MS42MjZaIi8+PHBhdGggY2xhc3M9ImNscy0yIiBkPSJNMjMuMTI1LDI4LjgwNUgxOS41NTZhMi45MTgsMi45MTgsMCwwLDEtLjkwOC01LjdMMTkuOSwyMi43bC0uMTQyLTEuMzA4YTQuMzkyLDQuMzkyLDAsMCwxLC44MTEtMi44NjIsMy41MjIsMy41MjIsMCwwLDEsMi42MTctMS4wOSwzLjI4MiwzLjI4MiwwLDAsMSwzLjE3NywyLjE4NWwuNzA3LDEuNzgyLDEuNjQyLS45OWEyLjEyMywyLjEyMywwLDAsMSwxLjEwNi0uMzIsMi4xNTksMi4xNTksMCwwLDEsMi4xMiwxLjc2bC4wODYuNDU3aDEuNjI1Yy0uMDI2LS4yMzctLjA1OS0uNDktLjExNC0uNzU4YTMuNzU5LDMuNzU5LDAsMCwwLTUuNjYyLTIuNTMsNS4xMiw1LjEyLDAsMCwwLTQuNzE2LTMuMjEyYy01LjMzNCwwLTUuMDE0LDUuNzUzLTUuMDE0LDUuNzUzYTQuNTQzLDQuNTQzLDAsMCwwLDEuNDE1LDguODY1aDMuNTY5WiIvPjxwYXRoIGNsYXNzPSJjbHMtMyIgZD0iTTI4LDZBMjIsMjIsMCwxLDEsNiwyOCwyMi4wMjUsMjIuMDI1LDAsMCwxLDI4LDZtMC0yQTI0LDI0LDAsMSwwLDUyLDI4LDI0LDI0LDAsMCwwLDI4LDRaIi8+PC9zdmc+;rounded=0;" parent="1" vertex="1">
          <mxGeometry x="-490" y="890" width="50" height="50" as="geometry" />
        </mxCell>
        <mxCell id="7WYxqq0Ax24HdgF5x29y-16" value="" style="shape=image;verticalLabelPosition=bottom;verticalAlign=top;imageAspect=0;aspect=fixed;image=data:image/svg+xml,PHN2ZyB4bWxucz0iaHR0cDovL3d3dy53My5vcmcvMjAwMC9zdmciIGlkPSJtZXNzYWdpbmctc2VydmljZSIgdmlld0JveD0iNC4wMDAwMDE5MDczNDg2MzMgMy45OTk5OTkwNDYzMjU2ODM2IDQ4IDQ3Ljk5OTk5NjE4NTMwMjczNCIgd2lkdGg9IjQ4IiBoZWlnaHQ9IjQ3Ljk5OTk5NjE4NTMwMjczNCI+PGRlZnM+PHN0eWxlPi5jbHMtMXtmaWxsOiMwNzRkOTI7fS5jbHMtMntmaWxsOiMwNTNiNzA7fS5jbHMtM3tmaWxsOiMwYTZlZDE7fTwvc3R5bGU+PC9kZWZzPjx0aXRsZT5tZXNzYWdpbmctc2VydmljZV9jaXJjbGU8L3RpdGxlPjxwYXRoIGNsYXNzPSJjbHMtMSIgZD0iTTI4LDZBMjIsMjIsMCwxLDEsNiwyOCwyMi4wMjUsMjIuMDI1LDAsMCwxLDI4LDZtMC0yQTI0LDI0LDAsMSwwLDUyLDI4LDI0LDI0LDAsMCwwLDI4LDRaIi8+PHBhdGggY2xhc3M9ImNscy0yIiBkPSJNMjMuMTI1LDMzLjk0MUgyMC41NzFhMy45MzEsMy45MzEsMCwwLDEtMS4yMjMtNy42NzFsMS4yMzQtLjQxNi0uMTI1LTEuMjk0YTUuNjkyLDUuNjkyLDAsMCwxLDEuMDg5LTMuOEE0LjcyNCw0LjcyNCwwLDAsMSwyNSwxOS4zMTdhNC42MzksNC42MzksMCwwLDEsNC4yMjcsMi45TDI5LjkzNiwyNGwxLjY0Mi0uOTg5YTIuOTU1LDIuOTU1LDAsMCwxLDEuNTQtLjQ0NCwzLDMsMCwwLDEsMi45NDgsMi40NDdsLjE1Ni44MjguNzY3LjM1YzEuMTkzLjU0NCwxLjUxNywxLjYzLDEuNzc5LDIuODc1aDEuNzQ1YTUuMjM1LDUuMjM1LDAsMCwwLTIuODUtNC4zNTMsNC42LDQuNiwwLDAsMC02LjkyNC0zLjEsNi4yNiw2LjI2LDAsMCwwLTUuNzY3LTMuOTI3Yy02Ljg1Ni4zNjQtNi4xMzEsNy4wMzUtNi4xMzEsNy4wMzVhNS41NTYsNS41NTYsMCwwLDAsMS43MywxMC44NGgyLjU1NCIvPjxwb2x5bGluZSBjbGFzcz0iY2xzLTIiIHBvaW50cz0iMzguMTU5IDM1LjU5NyAzNi40ODEgMzcuMjc2IDM3LjUxNCAzOC4zMDkgNDEgMzQuODIyIDM3LjUxNCAzMS4zMzYgMzYuNDgxIDMyLjM2OSAzOC4wOTUgMzMuOTQxIDMyLjg5NiAzMy45NDEgMzIuODg3IDM1LjU3NCIvPjxwb2x5Z29uIGNsYXNzPSJjbHMtMyIgcG9pbnRzPSIyMy4xMjUgMzUuNTY1IDI0Ljc1IDM1LjU2NSAyNC43NSAyOS44MTggMjcuOTg5IDMyLjMxNSAzMS4yNSAyOS44MTggMzEuMjUgMzUuNTY1IDMyLjg4NyAzNS41NzQgMzIuOTMxIDI3LjQ0IDMxLjI1MSAyNy40NCAyNy45NjMgMjkuOTI4IDI0Ljc1IDI3LjQ0IDIzLjEyNSAyNy40NCAyMy4xMjUgMzUuNTY1Ii8+PC9zdmc+;rounded=0;" parent="1" vertex="1">
          <mxGeometry x="-553.5" y="850" width="28" height="28" as="geometry" />
        </mxCell>
        <mxCell id="7WYxqq0Ax24HdgF5x29y-17" style="edgeStyle=orthogonalEdgeStyle;rounded=0;orthogonalLoop=1;jettySize=auto;html=1;exitX=0.5;exitY=0;exitDx=0;exitDy=0;entryX=0.5;entryY=1;entryDx=0;entryDy=0;" parent="1" source="7WYxqq0Ax24HdgF5x29y-18" target="7WYxqq0Ax24HdgF5x29y-13" edge="1">
          <mxGeometry relative="1" as="geometry" />
        </mxCell>
        <mxCell id="7WYxqq0Ax24HdgF5x29y-18" value="" style="shape=image;verticalLabelPosition=bottom;verticalAlign=top;imageAspect=0;aspect=fixed;image=data:image/svg+xml,PHN2ZyB4bWxucz0iaHR0cDovL3d3dy53My5vcmcvMjAwMC9zdmciIGlkPSJvcGVuY29ubmVjdG9ycyIgdmlld0JveD0iNC4wMDAwMDE5MDczNDg2MzMgMy45OTk5OTkwNDYzMjU2ODM2IDQ4IDQ3Ljk5OTk5NjE4NTMwMjczNCIgd2lkdGg9IjQ4IiBoZWlnaHQ9IjQ3Ljk5OTk5NjE4NTMwMjczNCI+PGRlZnM+PHN0eWxlPi5jbHMtMXtmaWxsOiMwNTNiNzA7fS5jbHMtMntmaWxsOiMwYTZlZDE7fS5jbHMtM3tmaWxsOiMwNzRkOTI7fTwvc3R5bGU+PC9kZWZzPjx0aXRsZT5vcGVuY29ubmVjdG9yc19jaXJjbGU8L3RpdGxlPjxwYXRoIGNsYXNzPSJjbHMtMSIgZD0iTTMyLjU0NCwyMy43NUE0LjI4Myw0LjI4MywwLDAsMCwzMi40ODksMjNhMy43NzgsMy43NzgsMCwwLDAtMy43MDgtMy4wODUsMy43MzUsMy43MzUsMCwwLDAtMS45NDEuNTUzLDUuMTA2LDUuMTA2LDAsMCwwLTQuNy0zLjIxMmMtNC44ODUsMC01LDUuNzU1LTUsNS43NTVBNC41NDEsNC41NDEsMCwwLDAsMTQsMjcuMzE3YzAsMi41MTcsMS41OTMsNC41NTgsNC4xLDQuNTU4aDcuMjcxVjMwLjI1SDE4LjFjLTEuNzE1LDAtMi40ODMtMS40NzMtMi40ODMtMi45MzNhMi45MTYsMi45MTYsMCwwLDEsMi4wMTktMi43NjdsMS4yMjctLjQxNy0uMTIxLTEuMjkxYTQuMzY3LDQuMzY3LDAsMCwxLC44MjEtMi44OSwyLjk3NywyLjk3NywwLDAsMSwyLjYwOS0xLjA3NiwzLjIxLDMuMjEsMCwwLDEsMy4xNTksMi4xODdsLjcwNSwxLjc4MiwxLjYzNy0uOTlhMi4xMTEsMi4xMTEsMCwwLDEsMS4xMDUtLjMyQTIuMTU1LDIuMTU1LDAsMCwxLDMwLjksMjMuM2wuMDM4LjQ1NFoiLz48cGF0aCBjbGFzcz0iY2xzLTIiIGQ9Ik0yMi4xMjQsMzMuNUgxNy4yNXY0Ljg3NWg0Ljg3NFYzNi43NTFoMy4yNTJWMzUuMTI2SDIyLjEyNFpNMjAuNSwzNS4xMjZ2MS42MjNIMTguODc1VjM1LjEyNEgyMC41WiIvPjxwYXRoIGNsYXNzPSJjbHMtMiIgZD0iTTM1LjEyMiwyMy43NWgxLjYyNFYyMC41aDEuNjI3VjE1LjYyNkgzMy41VjIwLjVoMS42MjRabTAtNi41aDEuNjI1djEuNjI1SDM1LjEyM1oiLz48cGF0aCBjbGFzcz0iY2xzLTIiIGQ9Ik0zOS41NzUsMjkuNTYzYTYuOTI0LDYuOTI0LDAsMCwwLTEuMTQyLTEuOTM1QTYuNDQ3LDYuNDQ3LDAsMCwwLDM2LjY5NCwyNi4yYTYuNTE5LDYuNTE5LDAsMCwwLTIuMTYtLjc1NGwwLDBjLS4xNzItLjAyNS0uMzM4LS4wNDItLjUtLjA1NmE4LjQ1MSw4LjQ1MSwwLDAsMC0xLjAzMiwwYy0uMTU5LjAxNC0uMzI1LjAzMS0uNS4wNThhNi4yOTMsNi4yOTMsMCwwLDAtMi4xOC43NTYsNi43NzQsNi43NzQsMCwwLDAtMS43MzQsMS40Miw2LjYsNi42LDAsMCwwLTEuMTYyLDEuOTM4QTYuMzQxLDYuMzQxLDAsMCwwLDI3LDMxLjg3NGE2LjIxNCw2LjIxNCwwLDAsMCwuNTE4LDIuNTE0LDYuNjI2LDYuNjI2LDAsMCwwLDMuNDY3LDMuNDY3LDYuNDQ3LDYuNDQ3LDAsMCwwLDUuMDY0LDAsNi42OTIsNi42OTIsMCwwLDAsMi4wNjYtMS40QTYuNDUsNi40NSwwLDAsMCw0MCwzMS44NzQsNi4zNyw2LjM3LDAsMCwwLDM5LjU3NSwyOS41NjNabS0xLjgtLjU0MkgzNS45MjVhNy4xMzYsNy4xMzYsMCwwLDAtMS4xNDEtMi4xQTQuODQzLDQuODQzLDAsMCwxLDM3Ljc3OSwyOS4wMjFaTTM1LjYsMzEuNzMxYTYuNCw2LjQsMCwwLDEtLjA3MS45NjMsOC4yMjEsOC4yMjEsMCwwLDEtLjE3OC44MDZIMzEuNjgyYTcuOTQxLDcuOTQxLDAsMCwxLS4xNzgtLjgwNiw2LjI3LDYuMjcsMCwwLDEtLjA3MS0uOTYzLDYuNiw2LjYsMCwwLDEsLjE3OC0xLjQ4aDMuODE1QTYuNjYyLDYuNjYyLDAsMCwxLDM1LjYsMzEuNzMxWm0tMi4xLTQuOTJhNC4wMTEsNC4wMTEsMCwwLDEsLjkwOS45MjcsNi4wNjcsNi4wNjcsMCwwLDEsLjcsMS4yODNIMzEuOTMyQTQuNzMyLDQuNzMyLDAsMCwxLDMzLjUsMjYuODExWm0tMS4yNDguMTA3YTcuMTEzLDcuMTEzLDAsMCwwLTEuMTQxLDIuMUgyOS4yNThBNC44MzUsNC44MzUsMCwwLDEsMzIuMjUzLDI2LjkxOFpNMjguNjg3LDMzLjVhNC42NjYsNC42NjYsMCwwLDEtLjIzMi0uNzM1LDQuNTEsNC41MSwwLDAsMSwwLTEuNzgzLDQuNjE4LDQuNjE4LDAsMCwxLC4yMzItLjczMWgyLjEzOWE2LjYsNi42LDAsMCwwLS4xNzgsMS40OCw2LjkxNyw2LjkxNywwLDAsMCwuMjE0LDEuNzY5Wm0yLDIuNjM1YTUuNTI0LDUuNTI0LDAsMCwxLTEuNDI2LTEuNDA5aDEuOTI1YTYuNyw2LjcsMCwwLDAsMS4zOSwyLjE3NUE0LjY5NCw0LjY5NCwwLDAsMSwzMC42ODQsMzYuMTM1Wm0yLjgxNy41NTJhNC4wNDMsNC4wNDMsMCwwLDEtLjgtLjgyLDUuOCw1LjgsMCwwLDEtLjY1OS0xLjE0MUgzNUE0LjM3Niw0LjM3NiwwLDAsMSwzMy41LDM2LjY4N1ptMi44NTItLjU1MmE0LjcsNC43LDAsMCwxLTEuODkuNzY2LDYuNzMyLDYuNzMyLDAsMCwwLDEuMzkxLTIuMTc1aDEuOTI1QTUuNTcyLDUuNTcyLDAsMCwxLDM2LjM1MywzNi4xMzVabTItMi42MzVIMzYuMTc1YTQuNDM0LDQuNDM0LDAsMCwwLC4xNDItLjgwNnEuMDM2LS40NjQuMDM2LS45NjNhNi43OTQsNi43OTQsMCwwLDAtLjE0My0xLjQ4aDIuMTRhNC43NzIsNC43NzIsMCwwLDEsMCwzLjI0OVoiLz48cGF0aCBjbGFzcz0iY2xzLTMiIGQ9Ik0yOCw2QTIyLDIyLDAsMSwxLDYsMjgsMjIuMDI1LDIyLjAyNSwwLDAsMSwyOCw2bTAtMkEyNCwyNCwwLDEsMCw1MiwyOCwyNCwyNCwwLDAsMCwyOCw0WiIvPjwvc3ZnPg==;rounded=0;" parent="1" vertex="1">
          <mxGeometry x="-639" y="890" width="50" height="50" as="geometry" />
        </mxCell>
        <mxCell id="7WYxqq0Ax24HdgF5x29y-19" value="Integration Suite" style="shape=image;verticalLabelPosition=bottom;verticalAlign=top;imageAspect=0;aspect=fixed;image=data:image/svg+xml,PHN2ZyB4bWxucz0iaHR0cDovL3d3dy53My5vcmcvMjAwMC9zdmciIGlkPSJpbnRlZ3JhdGlvbi1zdWl0ZSIgdmlld0JveD0iNC4wMDAwMDE5MDczNDg2MzMgMy45OTk5OTkwNDYzMjU2ODM2IDQ4IDQ3Ljk5OTk5NjE4NTMwMjczNCIgd2lkdGg9IjQ4IiBoZWlnaHQ9IjQ3Ljk5OTk5NjE4NTMwMjczNCI+PGRlZnM+PHN0eWxlPi5jbHMtMXtmaWxsOiMwNzRkOTI7fS5jbHMtMntmaWxsOiMwYTZlY2Y7fS5jbHMtM3tmaWxsOiMwMDNiNzQ7fTwvc3R5bGU+PC9kZWZzPjxwYXRoIGNsYXNzPSJjbHMtMSIgZD0iTTI4LDZBMjIsMjIsMCwxLDEsNiwyOCwyMi4wMjUsMjIuMDI1LDAsMCwxLDI4LDZtMC0yQTI0LDI0LDAsMSwwLDUyLDI4LDI0LDI0LDAsMCwwLDI4LDRaIi8+PHBhdGggY2xhc3M9ImNscy0yIiBkPSJNMjEuMzU0LDI5LjM2NGgxLjQ3NWExLjQ3OCwxLjQ3OCwwLDAsMCwxLjQ3Ny0xLjQ3M2wxLjQ3OC41NzR2LjlhMS40NDUsMS40NDUsMCwwLDAsLjI3NS44MTFsLTEuNjQxLDIuMTY3Yy0uMDM5LDAtLjA3Mi0uMDIzLS4xMTItLjAyM0gyMi44MzFBMS40NzksMS40NzksMCwwLDAsMjEuMzUyLDMzLjh2MS40NzVhMS40NzksMS40NzksMCwwLDAsMS40NzksMS40NzhoMS40NzVhMS40NzgsMS40NzgsMCwwLDAsMS40NzgtMS40NzhWMzMuOGExLjQ0OCwxLjQ0OCwwLDAsMC0uNjQzLTEuMTg3bDEuNDY4LTEuOTM4YTEuNDQzLDEuNDQzLDAsMCwwLC42NTQuMTY5aDEuNDc1YTEuNDM1LDEuNDM1LDAsMCwwLC43MzMtLjIyM2wuOTY4Ljk2OGExLjQzNSwxLjQzNSwwLDAsMC0uMjIzLjczM3YxLjQ3NWExLjQ3OSwxLjQ3OSwwLDAsMCwxLjQ3OCwxLjQ3OWgxLjQ3NWExLjQ3OSwxLjQ3OSwwLDAsMCwxLjQ3OS0xLjQ3OVYzMi4zMTlhMS40NzksMS40NzksMCwwLDAtMS40NzktMS40NzhIMzEuNjk0YTEuNDM1LDEuNDM1LDAsMCwwLS43MzMuMjIzbC0uOTY4LS45NjhhMS40MzUsMS40MzUsMCwwLDAsLjIyMy0uNzMzdi0xLjRsMS43LS44MjZhMS40NTcsMS40NTcsMCwwLDAsMS4yNjEuNzUzaDEuNDc1YTEuNDc4LDEuNDc4LDAsMCwwLDEuNDc4LTEuNDc4VjI0LjkzM2ExLjQ3OCwxLjQ3OCwwLDAsMC0xLjQ3OC0xLjQ3OEgzMy4xNzJhMS40NzgsMS40NzgsMCwwLDAtMS40NzksMS40Nzh2MS40NzVsMCwuMDA5LTEuNjU1LjgwNmExLjQ2NSwxLjQ2NSwwLDAsMC0xLjMtLjgxNGgtLjg4NGwtLjU4MS0xLjQ4YTEuNDc3LDEuNDc3LDAsMCwwLDEuNDY2LTEuNDc2VjIxLjk3OEExLjQ3OSwxLjQ3OSwwLDAsMCwyNy4yNiwyMC41SDI1Ljc4NWExLjQ3OCwxLjQ3OCwwLDAsMC0xLjQ3OCwxLjQ3OHYxLjQ3NWExLjQ3OSwxLjQ3OSwwLDAsMCwxLjQ3OCwxLjQ3OWguN2wuNTk0LDEuNTEyYTEuNDUyLDEuNDUyLDAsMCwwLTEuMjUsMS4yNDRMMjQuMzA3LDI3LjFWMjYuNDFhMS40NzgsMS40NzgsMCwwLDAtMS40NzgtMS40NzhIMjEuMzU0YTEuNDc5LDEuNDc5LDAsMCwwLTEuNDc5LDEuNDc4djEuNDc1QTEuNDc5LDEuNDc5LDAsMCwwLDIxLjM1NCwyOS4zNjRabTIuOTUyLDUuOTA5SDIyLjgzVjMzLjhsMS40NzYsMFptNy4zODgtMi45NTVoMS40NzdsMCwxLjQ3NkgzMS42OTNabTEuNDc4LTcuMzg2aDEuNDc2djEuNDc2SDMzLjE3MVptLTQuNDMzLDIuOTU1djEuNDc3SDI3LjI2MWwwLTEuNDc3Wm0tMi45NTQtNC40MzJWMjEuOTc3aDEuNDc2djEuNDc3Wm0tNC40MzEsMi45NTRIMjIuODN2MS40NzZIMjEuMzUyWiIvPjxwYXRoIGNsYXNzPSJjbHMtMiIgZD0iTTM3Ljc0NCwzMy41SDM2LjEyNXYxLjYyNWgxLjYxOWwuMDA2LjAwNi0uMDA2LDMuMjQ0TDE4LjI1LDM4LjM2M2wuMDA2LTMuMjQ0LDEuNjE5LjAwNlYzMy41bC0xLjYxOS0uMDA2YTEuNjMxLDEuNjMxLDAsMCwwLTEuNjMxLDEuNjMxdjMuMjM4YTEuNjMxLDEuNjMxLDAsMCwwLDEuNjMxLDEuNjMxTDM3Ljc0NCw0MGExLjYzMSwxLjYzMSwwLDAsMCwxLjYzMS0xLjYzMVYzNS4xMzFBMS42MzEsMS42MzEsMCwwLDAsMzcuNzQ0LDMzLjVaIi8+PGNpcmNsZSBjbGFzcz0iY2xzLTIiIGN4PSIzMi44NzUiIGN5PSIzNi43NSIgcj0iMC44MTMiLz48Y2lyY2xlIGNsYXNzPSJjbHMtMiIgY3g9IjM1LjMxMyIgY3k9IjM2Ljc1IiByPSIwLjgxMyIvPjxwYXRoIGNsYXNzPSJjbHMtMyIgZD0iTTM3LjY2MywyMS4wMjFhNC42LDQuNiwwLDAsMC02LjkyNC0zLjA5NEE1Ljk2OCw1Ljk2OCwwLDAsMCwyNC45NzIsMTRjLTYuNTM0LDAtNi4xMzEsNy4wMzUtNi4xMzEsNy4wMzVhNS41MzgsNS41MzgsMCwwLDAsMS4wMzQsMTAuNzdWMzAuMThhMy45NDYsMy45NDYsMCwwLDEtMy4yNS0zLjg3Niw0LjAxMyw0LjAxMywwLDAsMSwyLjcyMy0zLjcyNWwxLjIzNC0uNDE2LS4xMjUtMS4yOTRhNC45NDYsNC45NDYsMCwwLDEsMS4wODktMy44QTQuMTkyLDQuMTkyLDAsMCwxLDI1LDE1LjYyNmE0Ljk4OCw0Ljk4OCwwLDAsMSw0LjMzLDIuODkybC42MzcsMS41NTUsMS4zMTMtLjcxNGE0LjExNSw0LjExNSwwLDAsMSwxLjgzNi0uNDg0LDMsMywwLDAsMSwyLjk0OCwyLjQ0N2wuMTU2LjgyOC43NjcuMzVhNC4wNTQsNC4wNTQsMCwwLDEtLjg2NCw3LjY2OHYxLjYyNWE1LjY2NCw1LjY2NCwwLDAsMCwxLjUzOC0xMC43NzJaIi8+PC9zdmc+;labelBackgroundColor=default;rounded=0;" parent="1" vertex="1">
          <mxGeometry x="-470" y="695" width="50" height="50" as="geometry" />
        </mxCell>
        <mxCell id="7WYxqq0Ax24HdgF5x29y-20" value="&lt;b&gt;&lt;font style=&quot;font-size: 15px;&quot;&gt;HUBSPOT&lt;/font&gt;&lt;/b&gt;" style="text;strokeColor=none;align=center;fillColor=none;html=1;verticalAlign=middle;whiteSpace=wrap;rounded=0;" parent="1" vertex="1">
          <mxGeometry x="-310" y="780" width="140" height="20" as="geometry" />
        </mxCell>
        <mxCell id="7WYxqq0Ax24HdgF5x29y-21" value="API Socios de negocio" style="shape=image;verticalLabelPosition=bottom;verticalAlign=top;imageAspect=0;aspect=fixed;image=data:image/svg+xml,PHN2ZyB4bWxucz0iaHR0cDovL3d3dy53My5vcmcvMjAwMC9zdmciIHZpZXdCb3g9Ii0wLjAwNTAzNDg3NjUyMTY3Njc3OSAtMC4wMDAwMDE4ODg1MTU4Mzk3MDk3MjU3IDQ4LjAwMjk2MDIwNTA3ODEyNSAzNS41Mzc4Nzk5NDM4NDc2NTYiIHdpZHRoPSI0OC4wMDI5NjAyMDUwNzgxMjUiIGhlaWdodD0iMzUuNTM3ODc5OTQzODQ3NjU2Ij48ZGVmcz48c3R5bGU+LmNscy0xe2ZpbGw6IzU5NTk1OTt9PC9zdHlsZT48L2RlZnM+PHRpdGxlPmNsb3VkPC90aXRsZT48ZyBpZD0iTGF5ZXJfMiIgZGF0YS1uYW1lPSJMYXllciAyIj48ZyBpZD0iY2xvdWQiPjxwYXRoIGNsYXNzPSJjbHMtMSIgZD0iTTQyLDE0LjUzMWExMS4wNDcsMTEuMDQ3LDAsMCwxLDQuMzU5LDQuMDMxQTExLjMsMTEuMywwLDAsMSw0Ny4yLDI4LjU5NGE5LjIzLDkuMjMsMCwwLDEtMi41NzgsMy41MTYsMTMuMywxMy4zLDAsMCwxLTQuNjQxLDIuNDg0QTIyLjYxNywyMi42MTcsMCwwLDEsMzMsMzUuNTMySDEyQTEyLjQzMywxMi40MzMsMCwwLDEsNy41LDM0LjVhMTQuMzIyLDE0LjMyMiwwLDAsMS0zLjg0NC0yLjQzN0ExMS4yNzksMTEuMjc5LDAsMCwxLC45ODQsMjguNTQ3LDkuNCw5LjQsMCwwLDEsMCwyNC4zNzVhOS40MjgsOS40MjgsMCwwLDEsMi4wMTYtNi4xNDEsMTIuMDIsMTIuMDIsMCwwLDEsNS4zOS0zLjdBOS45MzQsOS45MzQsMCwwLDEsNy41LDguOTUzYTExLjc2LDExLjc2LDAsMCwxLDIuNzE5LTQuNjQxLDE0LjA1NywxNC4wNTcsMCwwLDEsNC41LTMuMTRBMTIuOTg2LDEyLjk4NiwwLDAsMSwyMC4wNjIsMGExMS41NiwxMS41NiwwLDAsMSw1LjUzMiwxLjQwNiwxMS42ODIsMTEuNjgyLDAsMCwxLDQuNSw0LjY4OCwxMS42MzUsMTEuNjM1LDAsMCwxLDQuMDMxLS44NDQsNi42OTIsNi42OTIsMCwwLDEsMy40MjIuODQ0LDcuODM0LDcuODM0LDAsMCwxLDIuNDM3LDIuMiwxMC4zNjksMTAuMzY5LDAsMCwxLDEuNSwzQTEwLjc3MywxMC43NzMsMCwwLDEsNDIsMTQuNTMxWm0tOSwxOHE1LjcxOCwwLDguODU5LTIuMTFBNi43NjEsNi43NjEsMCwwLDAsNDUsMjQuNDY5LDguMDQxLDguMDQxLDAsMCwwLDQzLjgyOCwyMC4yYTcuOCw3LjgsMCwwLDAtMy4yMzQtMi45NTNMMzksMTYuNDA2VjE0LjUzMWE4LjU4Niw4LjU4NiwwLDAsMC0uMjgxLTIuMDYyLDYuOCw2LjgsMCwwLDAtLjg5MS0yLjA2Myw1LjI2OCw1LjI2OCwwLDAsMC0xLjU0Ny0xLjU0NywzLjg3OCwzLjg3OCwwLDAsMC0yLjE1Ni0uNjA5LDYuODE4LDYuODE4LDAsMCwwLTIuOTA2LjY1NkwyOC43ODEsOS45MzgsMjcuNDY5LDcuNTk0YTguMTEyLDguMTEyLDAsMCwwLTMuNy0zLjdBOS43NDMsOS43NDMsMCwwLDAsMjAuMDYyLDNhOS44NzUsOS44NzUsMCwwLDAtNC41NDYsMS4xMjUsMTEuMiwxMS4yLDAsMCwwLTMuNywzLDkuMTc1LDkuMTc1LDAsMCwwLTEuNDUzLDIuNzY2LDYuODYzLDYuODYzLDAsMCwwLS4wNDcsMy45ODRsLjY1NywyLjYyNS0yLjUzMS45MzhhMTEuMjc2LDExLjI3NiwwLDAsMC0zLjY1NywyLjJBNS45NCw1Ljk0LDAsMCwwLDMsMjQuMzc1YTYuMzY3LDYuMzY3LDAsMCwwLC43NSwyLjk1NCw4Ljg3MSw4Ljg3MSwwLDAsMCwyLjAxNiwyLjU3OCwxMS41NzksMTEuNTc5LDAsMCwwLDIuOTA2LDEuODc1LDcuOTE1LDcuOTE1LDAsMCwwLDMuMzI4Ljc1WiIvPjwvZz48L2c+PC9zdmc+;rounded=0;" parent="1" vertex="1">
          <mxGeometry x="-850" y="810" width="53.33" height="40" as="geometry" />
        </mxCell>
        <mxCell id="7WYxqq0Ax24HdgF5x29y-22" style="edgeStyle=orthogonalEdgeStyle;rounded=0;orthogonalLoop=1;jettySize=auto;html=1;exitX=0.5;exitY=1;exitDx=0;exitDy=0;" parent="1" target="7WYxqq0Ax24HdgF5x29y-15" edge="1">
          <mxGeometry relative="1" as="geometry">
            <mxPoint x="-239.5" y="854" as="sourcePoint" />
            <mxPoint x="-280" y="914.5" as="targetPoint" />
            <Array as="points">
              <mxPoint x="-239" y="915" />
            </Array>
          </mxGeometry>
        </mxCell>
        <mxCell id="7WYxqq0Ax24HdgF5x29y-23" value="" style="shape=image;verticalLabelPosition=bottom;verticalAlign=top;imageAspect=0;aspect=fixed;image=data:image/png,iVBORw0KGgoAAAANSUhEUgAAAOEAAADhCAMAAAAJbSJIAAAAz1BMVEX/WzX//////v/8/////f////3+Wzb+XDP9XDX/WjT///z/Uyj+4tr/Th/9XTP8//3+tKX/Vy//Uib/WTn+ShX/3tf/2dT9XjD/VzT/7+39Z0f/qZf+VC38Vyr9VCb+UBj8noT8zsH+Sgn+fmH/6uj+wLX/yLr8oI3/lXv/0sn9dVL9mIH/dVn8gmj9b0n/j3n+ZUX/8/T+7+P+2879rqH9uKv/xb/+tJ/6oIz7Zzz+0cz+bkX9d1r9uaT7Tgz/fGX/ppz+QQD/jXz/7vL+jGnY2tmUAAANU0lEQVR4nO2dC1PbuBaALct6OZGNbYGTxg8IgUBSHoFSlrtst/v4/7/pSqGQOHYSx2Vj0dHX7myZCRkd6+i8dCRblsFgMBgMBoPBYDAYDAaDwWAwGAwGg8FgMBgMBoPBYPgpKKZWjLHnyf/k/2nb43l/CMZpwoUQPEwiKWPb43l/cMI/DU663dHh+Zjy3q83h4G46AIA4Mvfy4lgbY/oXSFe51MX+Db4gY3gCcnYTwtJMVFgT/7rPcbZnIhPIUAOepXQtRFwPic//b0ktrDX6/UsymL5Y4uanw+gY0P3VUDg+AC54Krzs9+LrU4uvOvrVHD1uNqTsHMDfOAj8DaHvoukyqLb4Oe+l3H6eATVF84up9/S9xns7tCYPEEE3tbgG75zx73mfjEiQXAGIXzTi/E3OYmkhXkkWBwiH5YktIEPB5nlNf7e7E/5nfab6kPQzXspbsHi4PQUILgqHwBIrcWQNB5ReAF834Zvmo8Q7BPLa8EJefwS2jZySxJKcwrGWVOtSk7lrEF78ejk0gZ3edRYJ5rjhX7FDP7gnjcaEcEsc/zy0oYn/L2HX4Pkaq18UnvDRt9JSH4uHxsqf+Np752HX4PsywYJwedGDoMGT1JBUUlCBA/z9x7/dsIzsFZLbXjTSEIcPkhvU/ZACMDb/Zua8GuFL3yVEBw3Ct0Iv6vWCR98+elAaWfC8/VaCsC0kYReWLUGXyL6/duaziNcq6UInDbS0uC6HEEooAtH4r0F2Eo6XT+DCHZIk+8MJtXfJ2Pf/v4lZBRWatQLk1Cmdjv7RClh5Ry6DuqLvcdtnuiulU+q71gE1s5jIk9r1mErWoqT6dp16Mo/J8N4d03lMuKrVFNwuX9Lg2M+WychsmW8PHra2Z4S0a18atIfDvbvLShJbiBavxYhQDc5xjs5apwNpDR+OaaxAd2/x6ceFmcVEdYrKoJ+GO6YJ7IE+o5dsjYuvNz/MrQw9iKpVGsldNVcHKY7aSqxwkfoywimxHUL+SH2GGPfjtbHpkAlj+7nXbIMRnF+p3RylS/NsrF3gAwP5rVgaVoghOrhQ7c4BfA3QWP5POra1eDWlY/GWSTWtu/AI9FW3ZTiKLu+ByqIgfZcXx/P5PiKmnsiojiun6OnExvavv32mORyPuKkBUMzh8ipYfzp8W7u5N3/jbPO8BgU41Ub9J86uH6tjKaBdBnLif7B0LO86L+UYz0eleqHWSI6v09+pzwPiEXCSdFN+jYENzvUWWiUiulsYcG615xaEWlrHb7CWPC6W4HT7BCuBl8P3xjBXu0YZ9hdxKdfQk+zHTvqBeJAOYslXOk2Uly/Os+XJDzo6CZhj0aYXxWdCPTB7Jl7tXNGvSX0MPFo4vWXJZTWFcpso/ZI9ZbwBTb8qmoPaOG9XXjCsVdPUYsSNq+f/7fkU1W7Luye3km3Ucuv6S+hmikWfp7JWGfhuV0bymyjlj39ABLOlVG6jSWT6rgq1fqj1j6//hL+gA0fpaIuaarjw650G/THI1jLh5FQDvXKhUu74KpG4TxzYm0R8eNIGEcJvoOL6v887VDZxpa9+Y8joXSNTJwsQjiZf0AEwcm3Lb7/40iooGIqVbOYNN7dZpjE63PGjyUhsfhnB/grVcIbmdOuj1U+loQ4Yml4DwpziFz4IIJfRUKZJdNoeFCYQbVP302TNdaGBX8dLknIf7I7Zy/EUX6FVpJGKLMNy1uq/FPGCGWkI4I/x/1FLHQ0/p3zLFAdbhrPZY/gxBsV94whBANBFqPGmBIrE9cHh+pzi3UrnQ26//7EE2I12s/aDzTyYibOwXKt15Fpx6VcjK+fYZSFncGPx+AvOnUcV/0WPLoQWUu1mjpIm8IoFcfLk+iq4v0/t28VY/zt0zmE0JZmCKnq5JtVUrONpMTOY9asw2OPhBMH2mip2ugD90JgHBPqhfQEbAE6AxHIjzKNtbWXH0HkLyS053sbAesFwy9SgA07rlJbbTmX/VOuqntty7EejKXbWNqqdx254KTbyCZ9aU+q9isWqCYU6MLzPIjituVYD8GMXy3tyPnzarkzGc9b2dyNc4ikefWl0ZldhxrPoaLzNFLbSxul2Qi84XIparwWrUAVqezGEvoOHHAaaSyhzPDF8fqGse0SSsdxMLQ0PvRAIopX9zZ2AUHXhgdc4zmcE3RktoGq+y5qSTnmUhfa3q3ZgPTaKtvY6B02SujC08QjGkdxkRXh/MppvBh9F9oxqb2v3AKeFWOS0FHjOXR8eCi09hiWqlIFfzkVblGVdBBC7nwrGan91YrOBQkchJqfkyM4GwO33Dvjo5dGfbc/Gr3009pr1mtbe/t1iUhHjbzc8ezIjOPsgnDO8zz/9NslqnaeditdRLvgqZ7uCmNjg+5NHqbEIy89Ann2vXSmY/4kYMM23b0RUFjSPnUu7O5qWBw46wwPoC/DPLfwOGQgfii8ts8nbiI8gyWPL2U450n5LDG/nkFkr5olF056GvtExit6EG0wFoSWM1wciKNSUVkGbydc4wi8M6haXNNcLb6SF/AoUdsfxWqkShhTXSsahFDRBat9jQh+z9eeIWbqF0pPZJBoug4xUaczi5ZDZviXww39ayR1yja1m+sqYZyUlFR6QR6w9WdPcXZTmkMk1XSf464PIfkldFy7ONppRilbK2FEpLVZBd7sv/27FoTwcqzZH260/JQGn6FdrDgieKarhL3bkoBgnG3+HWYND1c6AmX8o2nkxoKL0pqyM7bRahAc98awaE9t5LZxuLQGuOJ45v2WtjcidTsFxRMnMsHSNMGgvHy0b9CxttayxajY1Sl9/p+aRt/8siThVbD9zH34tfg7qOlBx/8eXj4V5pHte7yryo3mU68lvFyiyen2GDMbr0gIYQunZ2sh+qW8Imd46zpML1ZqAhA86LlrSiu0tM5FE+Vzq1BTCT1+WJLwdrM7nJN+X12H8EBTCcP7koSnwfYqfeesqKXIAd/1XIek4qj7ONuezPKjYtiGfF29BQsPShKe1Ej1creY58ufnvX0+DQ7LknoiK0BWHC1UsmQP7RxcU0N1A0fqxLCm63ZLD+H9kpOOdM0t7BoXs4Pj8RGS4Njkq7euIBgC0e8a4FpOV9HYLL5Dhoc/rG6B+CDweaksjUwSct1GtgdbvodUqHZCE70NDSWR3vXq6N1HTDYpHJ4WI6D0Gz/d0nURozKx8Dhc1YdukWBRYcP5XIp/KpnRDOnM0DlvUN0Xd03TIknBoWDGz94DvSdQ0arrjFxP1VOCmFiMO/AXGEkqKZVfUVFmq/uzrypOhgViDNQ1dd3nAQad5wEk8q9XXiehDHGRPVOMSxhOOCTUcXthQi6G41v69DhYXVvm/8lzwKPUmpF1CMkGX66BKB8/4Zva1vB+AFm1VcmSVHQ2VUu8jDLQs7j6ZFq8ncrFu0s1zMmfYVa4qRaRAdBCEb/O3t4+NqdqVZ9sHxT5OJJ/N3azab1IBFJkbv+9peNqFtj7oXm/TSYkOwCVN9etg11hZET9zTuhlZQnAZ3G27w2YQPXPhvqnNHu4KRtC8H2qgDE9ngD0517tyLYmyxbNaoN9FRV2rLZLJtGTZDWRxko/U3S26cP9U81K136r09aNxjM+A26qBVTfCjMNDcjlq9tA9LPU415xCALsc695bKNRjFUsDXEasrztURgzrSqZP9CFxq/nYCr+el6T/LflAlfpvPy7zNn0opH4eaayiOGe4vCQgh7M+v2qszhz6YnYa6vyWEzdfgYrdaXUgu86P+JskWnz1PEk/HrBdL70wZjdQ7aVKyWIMqjwBSQHVUaOCqvl9ku6BcrUAunL+fYDTR9SQJkWE2sShhHmPxbKGiyJYqmr5Y/o7qGZ6n+U4pzlFn1iC8m37rtXE3ex2wRwPOO0HGc9Zfspo2VDP4srtNgzD/baReilC+yX7+gpd/RWJ5ka5mNMkvLlUr4uxECVhcg/TlLjalycnw+awPK6ob3e8e71DS4OLePcAYJeK4XAhE6uLI+RpcJgjF9eB8pD7+8o4LODs6uIjVgXxtiWLWOSp1y859m1qDJcsfB1KhM+/67+Pj6c3zbSB4lvaozrcNWDgfVdRyZY4H39Zg4eMewYywXpAkaRIE0khF1KM6vwsMi0OAnIqbXOdWtHwfIrWYRSj1VCVRNSRKiRnB2ztR2iOsiFfkGvTLa/CDwlJQPknpIOnoM+0zoHp0Hivq8TKL7S9uy/zYYFF1L7A0o7RqDX48KO3FVfVC9WKvX2MRYpw+V90jL2dV157CHWE4vaq8KR/p2nG3K4Sw0yoJ4S8jIbbiT5VvxnF13xmrC8OEu6DyCKjm5z/rQrAnLqt2N4HLfwlnqN7q15tW5RXgXNNepgYw0S96/Pm+QxsvqPrPCK5WbhRU+w5fuL7nd3eHHxTPKjkIdIWup1ubQKl4KM4h6IaW7lXdHRFjODcvqhyKIDjXfN+hCdnT2UssI//cT/ivkRcWiBjPpmeH3e7X8RPv6b7/3gRGI5yGOc95EmCt77A0GAwGg8FgMBgMBoPBYDAYDAaDwWAwGAwGg8FgMBgMvxD/B6/yxWtK4tRDAAAAAElFTkSuQmCC" parent="1" vertex="1">
          <mxGeometry x="-265" y="805" width="50" height="50" as="geometry" />
        </mxCell>
      </root>
    </mxGraphModel>
  </diagram>
</mxfile>
